<svg width="221" height="30" viewBox="0 0 221 30" fill="none" xmlns="http://www.w3.org/2000/svg">
<path d="M15.7783 0.0626719C13.4825 0.0626719 11.3537 0.438222 9.39188 1.18956C7.47174 1.9409 5.80212 2.98445 4.38286 4.32019C3.00536 5.57243 1.92015 7.15854 1.12705 9.07869C0.459172 10.7066 0.0835091 12.4806 0 14.4007V16.2791H5.50983V14.4007C5.5933 12.9814 5.8229 11.8336 6.19857 10.957C6.69946 9.74652 7.38821 8.6613 8.26474 7.70127C9.30828 6.74123 10.3936 6.03165 11.5205 5.57251C12.8145 5.07161 14.2338 4.82117 15.7782 4.82117H23.6673V0.0626719H15.7783ZM18.1578 14.1502L18.1578 15.3398H18.2204C18.137 16.6754 17.8865 17.9068 17.4691 19.0339C16.9264 20.3279 16.2377 21.3923 15.4029 22.2271C14.4846 23.1455 13.3994 23.8551 12.1471 24.356C10.8531 24.8569 9.43388 25.1073 7.88944 25.1073H0.00032139V29.8658H7.88944C10.1852 29.8658 12.3141 29.4901 14.2759 28.7387C16.196 27.9874 17.8657 26.9439 19.2849 25.6081C20.7458 24.1472 21.8311 22.5611 22.5406 20.8497C23.292 19.18 23.6677 17.3434 23.6677 15.3399V14.1502H18.1578ZM37.5548 12.46V0.000160217H32.2954V29.9288H37.5548V12.46ZM51.8924 0.000160217V12.46H42.7513V17.3438H51.8924V29.9286H57.0892V0L51.8924 0.000160217ZM75.4224 25.1075C74.7963 24.9823 74.2118 24.7944 73.6692 24.544C72.5004 24.0013 71.4778 23.25 70.6012 22.29C69.7665 21.4133 69.0985 20.3281 68.5976 19.0341C68.1385 17.7401 67.9089 16.4253 67.9089 15.0896V14.9644V14.7765C67.9089 13.399 68.1385 12.0634 68.5976 10.7694C69.1403 9.4337 69.8082 8.36924 70.6013 7.57614C71.4361 6.61611 72.4379 5.8856 73.6067 5.38471C74.3163 5.0508 74.9215 4.84212 75.4224 4.75866V0.062752C73.9615 0.271437 72.6675 0.626262 71.5404 1.12713C69.7039 1.92024 68.1385 2.98461 66.8445 4.32035C65.5505 5.6561 64.5279 7.24221 63.7766 9.07877C63.0252 10.9153 62.6495 12.8355 62.6495 14.8391V14.9643V15.1521C62.6495 17.1974 63.0252 19.1176 63.7766 20.9125C64.4444 22.7074 65.4463 24.2726 66.7819 25.6084C68.1176 26.9859 69.6829 28.0503 71.4778 28.8016C72.6049 29.3025 73.9197 29.6573 75.4224 29.866V25.1075ZM92.4528 14.9645L92.4529 14.7766C92.4529 12.7313 92.0772 10.8112 91.3258 9.01627C90.5745 7.17971 89.5518 5.59352 88.2578 4.25786C87.0056 2.92219 85.4612 1.87857 83.6245 1.12723C82.581 0.626334 81.3079 0.271541 79.8052 0.0628481V4.82134L80.5566 5.07179C80.9323 5.19701 81.2245 5.30138 81.4332 5.38485C82.602 5.92751 83.6246 6.67884 84.5011 7.63888C85.3359 8.51548 86.0038 9.6007 86.5047 10.8947C86.9638 12.1887 87.1935 13.5035 87.1935 14.8393V14.9645V15.1523C87.1935 16.5298 86.9639 17.8655 86.5047 19.1595C85.9621 20.4951 85.2942 21.5596 84.5011 22.3527C83.6663 23.3127 82.6645 24.0432 81.4957 24.5441C80.953 24.7946 80.3896 24.9824 79.8052 25.1076V29.8661C81.0574 29.6991 82.3096 29.3443 83.5619 28.8017C85.2732 28.0921 86.8385 27.0277 88.2578 25.6084C89.6353 24.1475 90.6579 22.5614 91.3257 20.85C92.0771 19.0135 92.4528 17.0933 92.4528 15.0897L92.4528 14.9645ZM121.179 5.94838C120.637 4.77957 119.885 3.73603 118.925 2.81775C117.923 1.94115 116.734 1.25248 115.356 0.751582C113.854 0.29245 112.268 0.0628481 110.598 0.0628481H98.8897V4.75875H110.16C112.039 4.75875 113.604 5.21788 114.856 6.13625C116.025 7.01286 116.609 8.34852 116.609 10.1434C116.609 11.7714 116.046 13.0862 114.919 14.088C113.708 15.048 112.122 15.5281 110.16 15.5281H98.8898V29.8665H104.087V20.287H109.972C111.517 20.287 113.082 20.0574 114.668 19.5982C116.129 19.1391 117.381 18.4921 118.425 17.6573C119.51 16.8225 120.366 15.7581 120.992 14.4641C121.618 13.2119 121.931 11.7509 121.931 10.0812C121.931 8.49512 121.68 7.11719 121.179 5.94838ZM154.038 5.94838C153.495 4.77957 152.744 3.73603 151.784 2.81775C150.782 1.94115 149.592 1.25248 148.215 0.751582C146.712 0.29245 145.126 0.0628481 143.456 0.0628481H131.748V4.75875H143.019C144.897 4.75875 146.463 5.21788 147.715 6.13625C148.884 7.01286 149.468 8.34852 149.468 10.1434C149.468 11.7714 148.904 13.0862 147.777 14.088C146.567 15.048 144.981 15.5281 143.019 15.5281H131.748V29.8665H136.945V20.287H142.831C144.375 20.287 145.941 20.0574 147.527 19.5982C148.988 19.1391 150.24 18.4921 151.283 17.6573C152.369 16.8225 153.224 15.7581 153.85 14.4641C154.477 13.2119 154.79 11.7509 154.79 10.0812C154.79 8.49512 154.539 7.11719 154.038 5.94838ZM178.756 12.46V0.000160217H173.497V29.9288H178.756V12.46ZM197.841 0.0626719H220.131V4.82117H197.841V0.0626719ZM197.841 25.1075H220.068V29.866H197.841V25.1075ZM197.841 12.46H217.939V17.1559H197.841V12.46Z" fill="#424141"/>
</svg>
