<svg width="280" height="39" viewBox="0 0 280 39" fill="none" xmlns="http://www.w3.org/2000/svg">
<path d="M20.0696 0.0797167C17.1494 0.0797167 14.4416 0.557406 11.9462 1.51309C9.50383 2.46877 7.38012 3.79613 5.57487 5.49516C3.82273 7.08796 2.44237 9.10545 1.43358 11.5478C0.584053 13.6185 0.106221 15.8749 0 18.3172V20.7065H7.00835V18.3172C7.11451 16.512 7.40655 15.052 7.8844 13.937C8.52152 12.3973 9.39758 11.0169 10.5125 9.79578C11.8399 8.57465 13.2203 7.67208 14.6538 7.08806C16.2997 6.45094 18.105 6.13238 20.0694 6.13238H30.1042V0.0797167H20.0696ZM23.0961 17.9987L23.0962 19.5117H23.1759C23.0697 21.2107 22.7511 22.777 22.2202 24.2106C21.5299 25.8565 20.6539 27.2103 19.5921 28.2722C18.424 29.4404 17.0436 30.3429 15.4508 30.9801C13.8049 31.6172 11.9996 31.9357 10.0351 31.9357H0.000408798V37.9884H10.0351C12.9553 37.9884 15.6631 37.5106 18.1585 36.5548C20.6009 35.5991 22.7246 34.2718 24.5298 32.5728C26.3881 30.7145 27.7684 28.697 28.671 26.5202C29.6267 24.3964 30.1046 22.0603 30.1046 19.5118V17.9987H23.0961ZM47.7686 15.8488V0.000203791H41.0788V38.0685H47.7686V15.8488ZM66.0056 0.000203791V15.8488H54.3783V22.0607H66.0056V38.0683H72.6157V0L66.0056 0.000203791ZM95.935 31.936C95.1386 31.7768 94.3952 31.5378 93.705 31.2192C92.2183 30.529 90.9176 29.5733 89.8027 28.3522C88.7409 27.2371 87.8913 25.8568 87.2542 24.2109C86.6702 22.5649 86.3781 20.8925 86.3781 19.1935V19.0342V18.7953C86.3781 17.0431 86.6702 15.3442 87.2542 13.6983C87.9444 11.9994 88.794 10.6454 89.8028 9.63663C90.8646 8.41549 92.1388 7.48631 93.6255 6.84919C94.5281 6.42447 95.2979 6.15903 95.935 6.05287V0.0798187C94.0768 0.345259 92.4309 0.796587 90.9973 1.43368C88.6612 2.44248 86.6702 3.79633 85.0242 5.49536C83.3783 7.19439 82.0776 9.21187 81.1219 11.5479C80.1662 13.884 79.6883 16.3263 79.6883 18.8748V19.0341V19.273C79.6883 21.8746 80.1662 24.317 81.1219 26.6C81.9714 28.8831 83.2457 30.8741 84.9446 32.5731C86.6435 34.3252 88.6346 35.6791 90.9177 36.6348C92.3512 37.2719 94.0237 37.7232 95.935 37.9886V31.936ZM117.597 19.0344L117.597 18.7954C117.597 16.1938 117.119 13.7515 116.164 11.4684C115.208 9.13238 113.907 7.11479 112.261 5.41587C110.669 3.71694 108.704 2.38948 106.368 1.4338C105.041 0.796678 103.421 0.345392 101.51 0.079941V6.1326L102.466 6.45117C102.943 6.61045 103.315 6.7432 103.581 6.84937C105.067 7.53962 106.368 8.49529 107.483 9.71642C108.545 10.8314 109.394 12.2118 110.031 13.8577C110.615 15.5036 110.907 17.1761 110.907 18.8751V19.0344V19.2733C110.907 21.0254 110.615 22.7244 110.031 24.3703C109.341 26.0692 108.492 27.4232 107.483 28.432C106.421 29.6531 105.147 30.5823 103.66 31.2194C102.97 31.5379 102.253 31.7769 101.51 31.9362V37.9888C103.103 37.7764 104.695 37.3251 106.288 36.6349C108.465 35.7323 110.456 34.3784 112.261 32.5732C114.013 30.7149 115.314 28.6974 116.164 26.5206C117.119 24.1846 117.597 21.7422 117.597 19.1937L117.597 19.0344ZM154.136 7.56616C153.446 6.07947 152.49 4.75212 151.269 3.58409C149.995 2.46908 148.482 1.59311 146.73 0.955989C144.818 0.371988 142.801 0.079941 140.677 0.079941H125.785V6.05299H140.121C142.51 6.05299 144.501 6.63699 146.094 7.80513C147.58 8.92014 148.324 10.6191 148.324 12.9021C148.324 14.9728 147.607 16.6452 146.173 17.9195C144.634 19.1406 142.616 19.7512 140.121 19.7512H125.785V37.9892H132.395V25.8044H139.881C141.846 25.8044 143.837 25.5124 145.854 24.9283C147.713 24.3443 149.305 23.5214 150.633 22.4596C152.013 21.3978 153.102 20.0438 153.898 18.3979C154.694 16.8051 155.093 14.9468 155.093 12.823C155.093 10.8055 154.774 9.05285 154.136 7.56616ZM195.932 7.56616C195.241 6.07947 194.286 4.75212 193.064 3.58409C191.79 2.46908 190.277 1.59311 188.525 0.955989C186.614 0.371988 184.596 0.079941 182.472 0.079941H167.58V6.05299H181.916C184.305 6.05299 186.296 6.63699 187.889 7.80513C189.376 8.92014 190.119 10.6191 190.119 12.9021C190.119 14.9728 189.402 16.6452 187.968 17.9195C186.429 19.1406 184.411 19.7512 181.916 19.7512H167.58V37.9892H174.19V25.8044H181.677C183.641 25.8044 185.632 25.5124 187.65 24.9283C189.508 24.3443 191.101 23.5214 192.428 22.4596C193.808 21.3978 194.897 20.0438 195.693 18.3979C196.49 16.8051 196.888 14.9468 196.888 12.823C196.888 10.8055 196.569 9.05285 195.932 7.56616ZM227.373 15.8488V0.000203791H220.683V38.0685H227.373V15.8488ZM251.648 0.0797167H280V6.13238H251.648V0.0797167ZM251.648 31.936H279.919V37.9887H251.648V31.936ZM251.648 15.8488H277.212V21.8218H251.648V15.8488Z" fill="white"/>
</svg>
