<svg width="214" height="255" viewBox="0 0 214 255" fill="none" xmlns="http://www.w3.org/2000/svg">
<g filter="url(#filter0_d_229_23)">
<rect x="12" y="8" width="201.874" height="246.187" fill="#70A1D7"/>
</g>
<path fill-rule="evenodd" clip-rule="evenodd" d="M82.7471 150.777C80.8022 162.795 92.2962 166.967 105.96 169.459C119.623 171.95 131.824 167.019 133.769 155C135.714 142.982 128.46 135.084 114.797 132.592C101.134 130.101 84.6919 138.759 82.7471 150.777Z" fill="url(#paint0_linear_229_23)" stroke="black" stroke-width="2.14244" stroke-linecap="round" stroke-linejoin="round"/>
<path fill-rule="evenodd" clip-rule="evenodd" d="M78.443 138.523C78.0769 138.597 77.66 138.614 77.3019 138.795C76.5858 139.159 75.7932 139.959 75.1825 140.509C73.9611 141.608 73.2784 143.011 73.2784 143.011L73.5475 143.28C73.5475 143.28 74.4219 142.143 75.5967 141.086C76.1841 140.557 76.8443 140.052 77.4937 139.722C78.1431 139.392 78.7712 139.245 79.3041 139.377C79.823 139.504 80.3708 139.99 80.8742 140.685C81.3776 141.381 81.8345 142.272 82.2159 143.147C82.9788 144.899 83.5202 146.616 83.5202 146.616L83.8422 146.627C83.8422 146.627 83.5759 144.662 82.7916 142.862C82.3994 141.961 82.0461 141.003 81.5024 140.252C80.9587 139.5 80.2573 138.71 79.531 138.531C79.1748 138.443 78.809 138.45 78.443 138.523Z" fill="black"/>
<path d="M61.0211 125.421L100.41 133.397" stroke="black"/>
<path fill-rule="evenodd" clip-rule="evenodd" d="M178.34 108.836C176.006 109.415 133.413 144.863 133.413 144.863L134.623 153.417C134.623 153.417 176.597 111.246 178.902 110.586C181.207 109.927 190.307 110.869 191.238 111.488C192.169 112.108 193.812 122.232 193.812 122.232L194.27 121.888C194.27 121.888 192.701 111.102 191.785 110.466C190.868 109.829 180.675 108.256 178.34 108.836Z" fill="black"/>
<path fill-rule="evenodd" clip-rule="evenodd" d="M146.874 136.111C146.85 136.128 146.829 136.15 146.812 136.175C146.796 136.201 146.784 136.229 146.778 136.259C146.771 136.288 146.771 136.319 146.776 136.349C146.781 136.378 146.791 136.406 146.807 136.431C146.822 136.456 146.842 136.477 146.866 136.494C146.89 136.51 146.916 136.521 146.945 136.527C146.973 136.532 147.002 136.532 147.03 136.526C147.059 136.519 147.086 136.507 147.11 136.49C147.134 136.473 147.155 136.451 147.172 136.426C147.189 136.4 147.2 136.372 147.206 136.342C147.213 136.312 147.213 136.282 147.208 136.252C147.203 136.223 147.192 136.195 147.177 136.17C147.145 136.12 147.096 136.085 147.039 136.074C146.982 136.063 146.923 136.076 146.874 136.111ZM147.096 136.467C147.075 136.482 147.051 136.493 147.026 136.498C147.001 136.504 146.975 136.504 146.95 136.499C146.925 136.495 146.902 136.485 146.881 136.47C146.86 136.456 146.842 136.437 146.829 136.415C146.815 136.393 146.806 136.368 146.802 136.342C146.797 136.316 146.798 136.29 146.803 136.263C146.809 136.237 146.819 136.212 146.834 136.19C146.848 136.168 146.867 136.149 146.888 136.134C146.931 136.103 146.983 136.092 147.033 136.102C147.083 136.111 147.127 136.142 147.154 136.186C147.168 136.207 147.177 136.232 147.182 136.258C147.186 136.284 147.186 136.311 147.18 136.337C147.175 136.363 147.165 136.388 147.15 136.41C147.136 136.433 147.117 136.452 147.096 136.467Z" fill="white"/>
<path fill-rule="evenodd" clip-rule="evenodd" d="M147.097 136.181C147.086 136.163 147.066 136.15 147.045 136.152C147.024 136.153 147.006 136.165 146.989 136.177L146.899 136.24L147.03 136.451L147.055 136.433L146.995 136.336L147.041 136.303L147.161 136.359L147.191 136.338L147.068 136.285C147.104 136.258 147.123 136.222 147.097 136.181ZM147.021 136.288L146.982 136.316L146.936 136.241L146.994 136.2C147.02 136.182 147.051 136.166 147.071 136.199C147.098 136.241 147.05 136.268 147.021 136.288ZM142.799 143.751L141.223 143.997C141.188 144.001 141.152 143.975 141.138 143.952L140.935 143.618C140.921 143.595 140.91 143.567 140.927 143.524C141.003 143.35 141.26 142.845 141.289 141.943C141.327 140.741 140.351 140.44 139.613 141.229C138.956 141.93 138.445 142.894 138.252 143.359C138.081 143.773 138.276 143.99 138.405 144.217C138.48 144.299 138.508 144.267 138.524 144.121C138.752 143.203 139.351 142.207 139.466 142.028C139.581 141.849 139.812 141.357 140.316 141.149C140.8 140.95 141.064 141.61 141.089 141.949C141.118 142.32 140.961 142.998 140.839 143.224C140.793 143.31 140.744 143.292 140.707 143.232L139.939 141.934C139.886 141.849 139.825 141.837 139.76 141.925L139.67 142.087C139.613 142.206 139.63 142.224 139.664 142.298L140.563 143.785C140.582 143.818 140.583 143.853 140.571 143.873L140.293 144.427C140.225 144.548 140.298 144.607 140.388 144.58L140.843 144.504C140.947 144.48 140.988 144.488 141.041 144.573L141.474 145.295C141.745 145.012 141.671 144.844 141.615 144.737L141.48 144.52C141.457 144.463 141.475 144.426 141.522 144.405L142.848 144.193C142.966 144.171 143.005 144.119 142.997 143.953C142.989 143.788 142.961 143.723 142.799 143.751ZM143.447 140.705C143.358 140.887 143.39 141.089 143.507 141.148C143.624 141.207 143.801 141.106 143.89 140.923C143.979 140.741 143.946 140.547 143.829 140.488C143.713 140.429 143.536 140.523 143.447 140.705Z" fill="white"/>
<path fill-rule="evenodd" clip-rule="evenodd" d="M142.979 141.182C142.971 141.257 142.988 141.455 143.002 141.573C143.016 141.692 143.055 141.956 142.967 142.018C142.875 142.083 142.717 141.857 142.664 141.771C142.611 141.686 142.553 141.709 142.531 141.731C142.508 141.752 142.453 141.828 142.488 141.932C142.523 142.036 142.653 142.503 142.528 142.591C142.449 142.646 142.244 142.453 142.195 142.384C142.146 142.314 142.075 142.278 142.004 142.328C141.955 142.363 141.908 142.433 141.902 142.48C141.895 142.528 141.92 142.577 141.768 142.641C141.645 142.722 141.568 142.868 141.578 143.211C141.584 143.417 141.685 143.738 141.882 143.756C142.067 143.773 142.165 143.441 142.18 143.32C142.194 143.199 142.214 143.106 142.212 143.046C142.211 142.986 142.238 142.972 142.277 143.006C142.316 143.04 142.491 143.156 142.58 143.087C142.669 143.019 142.74 142.864 142.723 142.52C142.717 142.452 142.757 142.429 142.792 142.466C142.826 142.503 142.968 142.605 143.06 142.541C143.147 142.479 143.156 142.269 143.152 142.151C143.15 142.07 143.217 142.062 143.251 142.118C143.286 142.173 144.076 143.498 144.076 143.498C144.113 143.558 144.146 143.559 144.188 143.529L144.369 143.402C144.402 143.378 144.413 143.328 144.384 143.281L143.101 141.136C143.069 141.085 142.99 141.088 142.979 141.182ZM142.084 143.013C142.087 143.104 142.093 143.344 141.987 143.376C141.925 143.383 141.88 143.169 141.873 143.088C141.864 142.967 141.909 142.73 141.993 142.722C142.072 142.715 142.082 142.923 142.084 143.013ZM147.613 137.239C147.605 137.266 147.594 137.311 147.517 137.325C147.386 137.356 147.253 137.162 147.085 137.017C146.933 136.886 146.823 136.979 146.827 137.085L146.83 137.383C146.834 137.441 146.845 137.574 146.795 137.61C146.737 137.651 146.71 137.547 146.66 137.46C146.626 137.401 146.546 137.353 146.487 137.395C146.421 137.441 146.415 137.596 146.435 137.753C146.45 137.863 146.551 138.251 146.428 138.337C146.349 138.393 146.195 138.165 146.145 138.095C146.096 138.026 146.015 137.954 145.945 138.004C145.897 138.037 145.881 138.085 145.875 138.132C145.869 138.18 145.88 138.208 145.785 138.257C145.662 138.338 145.534 138.593 145.543 138.936C145.549 139.142 145.638 139.521 145.835 139.539C146.02 139.556 146.088 139.165 146.102 139.045C146.117 138.924 146.137 138.831 146.135 138.77C146.133 138.71 146.161 138.697 146.2 138.731C146.239 138.765 146.413 138.881 146.502 138.812C146.591 138.743 146.653 138.669 146.636 138.325C146.629 138.257 146.671 138.218 146.706 138.255C146.741 138.291 146.82 138.398 146.907 138.337C147.057 138.231 146.994 137.739 146.983 137.622C146.972 137.519 147.046 137.498 147.103 137.54C147.184 137.602 147.375 137.848 147.537 137.734C147.7 137.619 147.7 137.365 147.699 137.286C147.702 137.204 147.638 137.147 147.613 137.239ZM146.007 138.738C146.009 138.828 146.014 139.028 145.908 139.059C145.846 139.066 145.826 138.902 145.819 138.821C145.809 138.7 145.853 138.461 145.937 138.453C146.017 138.446 146.005 138.648 146.007 138.738ZM145.064 139.081C145.064 139.081 144.545 139.066 144.371 139.018C144.254 138.985 144.263 138.892 144.283 138.828C144.427 138.482 144.653 137.942 144.552 137.425C144.455 136.926 144.01 136.747 143.809 136.809C143.533 136.894 143.145 137.387 143.19 138.017C143.219 138.425 143.208 138.574 143.692 139.398C143.783 139.554 143.888 139.732 144.007 139.924C144.127 140.115 144.43 140.65 144.47 140.762C144.534 141.048 144.686 140.744 144.739 140.579C144.791 140.413 144.699 140.285 144.664 140.227C144.618 140.155 143.826 138.874 143.686 138.563C143.599 138.369 143.42 138.021 143.425 137.606C143.431 137.192 143.69 137.175 143.769 137.186C143.848 137.198 143.993 137.268 144.107 137.537C144.283 137.954 144.115 138.665 144.086 138.869C144.058 139.073 144.152 139.166 144.27 139.211C144.354 139.244 144.541 139.29 144.725 139.326C144.909 139.362 144.96 139.473 144.991 139.561C145.076 139.832 144.856 140.882 144.856 140.882C144.815 141.114 145.091 141.25 145.185 141.294C145.278 141.339 145.321 141.272 145.318 141.182C145.29 140.791 145.506 139.646 145.506 139.646C145.542 139.272 145.317 139.093 145.064 139.081Z" fill="white"/>
<path fill-rule="evenodd" clip-rule="evenodd" d="M91.1649 93C89.7067 92.9652 33.6812 122.305 33.6812 122.305L31 128.25C31 128.25 90.1496 93.8997 91.1545 93.8407C92.1593 93.7816 100.095 98.1679 100.489 98.8025C100.883 99.4371 100.997 104.494 100.997 104.494L101.25 104.529C101.25 104.529 101.236 99.0084 100.863 98.3535C100.491 97.6986 92.6231 93.0349 91.1649 93Z" fill="black"/>
<path fill-rule="evenodd" clip-rule="evenodd" d="M73.1122 144.294C73.1122 156.489 70.3639 157.133 56.5003 157.133C42.6367 157.133 31.398 150.08 31.398 137.885C31.398 125.691 30.5615 120.612 44.4251 120.612C58.2887 120.612 73.1122 132.1 73.1122 144.294Z" fill="url(#paint1_linear_229_23)" stroke="black" stroke-width="2.14244" stroke-linecap="round" stroke-linejoin="round"/>
<path fill-rule="evenodd" clip-rule="evenodd" d="M46.5413 127.759C46.5168 127.746 46.4895 127.738 46.4609 127.735C46.4322 127.731 46.4028 127.733 46.3743 127.739C46.3457 127.745 46.3187 127.756 46.2947 127.771C46.2706 127.785 46.2501 127.804 46.2342 127.825C46.2183 127.846 46.2073 127.87 46.202 127.894C46.1966 127.919 46.197 127.943 46.203 127.967C46.2091 127.991 46.2207 128.013 46.2372 128.033C46.2536 128.053 46.2747 128.069 46.2991 128.082C46.3236 128.094 46.3509 128.102 46.3796 128.106C46.4083 128.109 46.4377 128.108 46.4663 128.102C46.4948 128.095 46.5218 128.084 46.5458 128.07C46.5698 128.055 46.5903 128.036 46.6061 128.015C46.6381 127.972 46.6493 127.921 46.6371 127.873C46.625 127.825 46.5905 127.784 46.5413 127.759ZM46.3137 128.062C46.2922 128.051 46.2736 128.037 46.2591 128.019C46.2446 128.002 46.2344 127.982 46.2291 127.961C46.2238 127.94 46.2236 127.918 46.2283 127.897C46.2331 127.876 46.2428 127.855 46.2569 127.836C46.2709 127.818 46.289 127.801 46.3101 127.788C46.3312 127.775 46.355 127.766 46.3801 127.76C46.4051 127.755 46.431 127.754 46.4561 127.757C46.4813 127.76 46.5052 127.767 46.5267 127.778C46.5699 127.8 46.6002 127.836 46.6109 127.879C46.6216 127.921 46.6118 127.966 46.5836 128.003C46.5697 128.022 46.5517 128.038 46.5306 128.051C46.5095 128.065 46.4858 128.074 46.4607 128.08C46.4356 128.085 46.4097 128.086 46.3845 128.083C46.3593 128.08 46.3352 128.073 46.3137 128.062Z" fill="black"/>
<path fill-rule="evenodd" clip-rule="evenodd" d="M46.5498 127.972C46.5611 127.957 46.5654 127.937 46.5555 127.922C46.546 127.906 46.5292 127.896 46.5116 127.887L46.4216 127.841L46.2869 128.021L46.3121 128.034L46.3742 127.951L46.4208 127.975L46.4177 128.088L46.4478 128.103L46.4474 127.988C46.4849 128.006 46.5233 128.008 46.5498 127.972ZM46.4259 127.953L46.3872 127.934L46.4348 127.87L46.4939 127.9C46.5196 127.913 46.5451 127.931 46.5243 127.959C46.497 127.995 46.4549 127.968 46.4259 127.953ZM38.239 127.449L37.4162 126.322C37.3986 126.297 37.4078 126.259 37.4232 126.24L37.6381 125.959C37.6534 125.939 37.6733 125.921 37.7174 125.918C37.8998 125.912 38.443 125.925 39.2474 125.613C40.3188 125.198 40.2078 124.333 39.2298 124.053C38.3611 123.805 37.3159 123.767 36.833 123.789C36.4026 123.81 36.287 124.041 36.1376 124.225C36.0946 124.313 36.1334 124.323 36.2681 124.281C37.1631 124.118 38.2685 124.213 38.4703 124.236C38.6721 124.259 39.1938 124.255 39.5706 124.567C39.9324 124.868 39.4537 125.316 39.1654 125.461C38.8501 125.62 38.1934 125.75 37.9476 125.739C37.8542 125.735 37.8517 125.691 37.8897 125.64L38.7356 124.566C38.7898 124.494 38.7767 124.442 38.6744 124.425L38.4976 124.415C38.3706 124.415 38.3612 124.435 38.3094 124.489L37.3478 125.733C37.3268 125.76 37.2959 125.774 37.2739 125.772L36.6795 125.762C36.547 125.754 36.5231 125.832 36.5818 125.892L36.8235 126.216C36.8852 126.287 36.894 126.322 36.8397 126.394L36.3714 126.995C36.7247 127.101 36.8432 126.981 36.9167 126.899L37.0551 126.714C37.0959 126.675 37.136 126.675 37.1722 126.704L37.8692 127.65C37.9337 127.733 37.9947 127.744 38.1373 127.677C38.2798 127.61 38.3261 127.564 38.239 127.449ZM41.1665 126.824C40.9721 126.823 40.8073 126.922 40.8003 127.034C40.7931 127.146 40.9507 127.246 41.1453 127.247C41.3399 127.249 41.4977 127.151 41.5048 127.039C41.5119 126.927 41.3612 126.825 41.1665 126.824Z" fill="black"/>
<path fill-rule="evenodd" clip-rule="evenodd" d="M40.5723 126.633C40.5032 126.654 40.3356 126.741 40.2367 126.795C40.1378 126.85 39.9208 126.978 39.833 126.933C39.7402 126.886 39.8781 126.68 39.9325 126.607C39.987 126.535 39.9449 126.498 39.9171 126.489C39.8893 126.48 39.802 126.465 39.7239 126.531C39.6459 126.596 39.2854 126.869 39.16 126.805C39.0806 126.764 39.1717 126.535 39.2138 126.471C39.2558 126.407 39.2605 126.339 39.1894 126.303C39.1392 126.277 39.0602 126.267 39.0161 126.279C38.9719 126.292 38.9379 126.33 38.8231 126.236C38.7046 126.17 38.5467 126.165 38.2496 126.299C38.0707 126.38 37.8272 126.577 37.8872 126.737C37.9431 126.886 38.2733 126.838 38.385 126.805C38.4966 126.772 38.5864 126.753 38.6386 126.729C38.6909 126.706 38.7133 126.722 38.6986 126.765C38.6839 126.807 38.6489 126.985 38.7436 127.029C38.8383 127.072 39.0016 127.07 39.2973 126.93C39.3551 126.9 39.39 126.922 39.3711 126.963C39.3523 127.004 39.3168 127.151 39.4088 127.198C39.4965 127.243 39.685 127.172 39.787 127.125C39.8572 127.094 39.8896 127.143 39.8543 127.19C39.819 127.237 38.9586 128.339 38.9586 128.339C38.9206 128.39 38.9327 128.416 38.9745 128.437L39.1563 128.53C39.1897 128.547 39.238 128.537 39.2679 128.497L40.6591 126.71C40.6918 126.667 40.6585 126.607 40.5723 126.633ZM38.6179 126.618C38.5394 126.653 38.3303 126.747 38.2615 126.677C38.2319 126.632 38.402 126.518 38.4708 126.483C38.5739 126.43 38.7996 126.377 38.8383 126.44C38.8751 126.498 38.6963 126.583 38.6179 126.618ZM45.8214 128.761C45.7952 128.765 45.7517 128.773 45.7088 128.718C45.6314 128.628 45.751 128.454 45.8137 128.27C45.8699 128.105 45.7457 128.053 45.655 128.096L45.3942 128.208C45.344 128.233 45.2313 128.291 45.181 128.265C45.1225 128.235 45.2032 128.176 45.2607 128.105C45.2995 128.057 45.3101 127.977 45.2516 127.947C45.1848 127.913 45.0471 127.966 44.9166 128.04C44.8253 128.091 44.5236 128.313 44.4002 128.25C44.3208 128.209 44.4621 128.006 44.5042 127.942C44.5463 127.878 44.5783 127.789 44.5073 127.753C44.4592 127.728 44.4116 127.734 44.3674 127.746C44.3233 127.759 44.3029 127.778 44.2232 127.723C44.1047 127.657 43.8306 127.653 43.5334 127.787C43.3545 127.868 43.0558 128.076 43.1158 128.236C43.1717 128.385 43.5414 128.293 43.6531 128.26C43.7647 128.226 43.8544 128.207 43.9067 128.184C43.959 128.16 43.9814 128.176 43.9667 128.219C43.952 128.262 43.917 128.44 44.0117 128.483C44.1064 128.527 44.1952 128.547 44.491 128.407C44.5486 128.376 44.5987 128.394 44.5799 128.435C44.561 128.475 44.4973 128.576 44.5851 128.621C44.7355 128.698 45.1443 128.467 45.2426 128.415C45.3292 128.368 45.3761 128.418 45.3604 128.477C45.3377 128.563 45.195 128.802 45.358 128.885C45.5211 128.969 45.7447 128.875 45.8135 128.844C45.8865 128.817 45.9121 128.746 45.8214 128.761ZM43.8858 128.072C43.8074 128.108 43.634 128.185 43.5653 128.114C43.5356 128.069 43.6716 127.993 43.7404 127.958C43.8436 127.905 44.0706 127.851 44.1094 127.913C44.1461 127.972 43.9643 128.037 43.8858 128.072ZM43.2209 127.469C43.2209 127.469 43.0343 127.063 43.0101 126.91C42.9939 126.807 43.079 126.779 43.1425 126.772C43.5021 126.755 44.0637 126.73 44.4796 126.461C44.8803 126.201 44.8666 125.79 44.7348 125.658C44.5541 125.476 43.971 125.358 43.4347 125.626C43.0874 125.799 42.9519 125.846 42.414 126.525C42.3121 126.653 42.1962 126.8 42.0737 126.963C41.9513 127.127 41.5985 127.559 41.515 127.631C41.2887 127.787 41.614 127.793 41.7798 127.772C41.9456 127.751 42.0229 127.633 42.0596 127.584C42.1059 127.522 42.9263 126.435 43.1462 126.211C43.283 126.072 43.5201 125.805 43.8862 125.656C44.2525 125.506 44.3671 125.701 44.3874 125.766C44.4076 125.832 44.4025 125.97 44.2098 126.157C43.9107 126.449 43.2215 126.581 43.0312 126.634C42.841 126.688 42.7953 126.795 42.8009 126.903C42.8048 126.98 42.8359 127.142 42.8753 127.298C42.9147 127.453 42.8368 127.534 42.7712 127.591C42.5657 127.757 41.5582 127.975 41.5582 127.975C41.3388 128.028 41.3257 128.293 41.3227 128.382C41.3198 128.471 41.3945 128.479 41.473 128.443C41.8057 128.277 42.8944 128.02 42.8944 128.02C43.2378 127.91 43.3079 127.669 43.2209 127.469Z" fill="black"/>
<defs>
<filter id="filter0_d_229_23" x="0" y="0" width="213.874" height="254.187" filterUnits="userSpaceOnUse" color-interpolation-filters="sRGB">
<feFlood flood-opacity="0" result="BackgroundImageFix"/>
<feColorMatrix in="SourceAlpha" type="matrix" values="0 0 0 0 0 0 0 0 0 0 0 0 0 0 0 0 0 0 127 0" result="hardAlpha"/>
<feOffset dx="-8" dy="-4"/>
<feGaussianBlur stdDeviation="2"/>
<feComposite in2="hardAlpha" operator="out"/>
<feColorMatrix type="matrix" values="0 0 0 0 0 0 0 0 0 0 0 0 0 0 0 0 0 0 0.25 0"/>
<feBlend mode="normal" in2="BackgroundImageFix" result="effect1_dropShadow_229_23"/>
<feBlend mode="normal" in="SourceGraphic" in2="effect1_dropShadow_229_23" result="shape"/>
</filter>
<linearGradient id="paint0_linear_229_23" x1="92.2988" y1="154.403" x2="129.478" y2="152.625" gradientUnits="userSpaceOnUse">
<stop stop-color="#FFAAAA" stop-opacity="0.44664"/>
<stop offset="1" stop-color="#FF0000" stop-opacity="0.375494"/>
</linearGradient>
<linearGradient id="paint1_linear_229_23" x1="67.9598" y1="148.394" x2="49.8566" y2="137.942" gradientUnits="userSpaceOnUse">
<stop stop-color="#FF8080" stop-opacity="0.474308"/>
<stop offset="1" stop-color="#FF0000" stop-opacity="0.474308"/>
</linearGradient>
</defs>
</svg>
