<svg width="214" height="255" viewBox="0 0 214 255" fill="none" xmlns="http://www.w3.org/2000/svg">
<g filter="url(#filter0_d_229_21)">
<path d="M12 8H213.874V254.187H12V8Z" fill="#21825C"/>
</g>
<path d="M58.1799 146.333L37 151.986C37 151.986 40.6138 158.204 47.5879 164.777C48.0691 165.231 48.871 164.472 49.384 164.927C49.9105 165.394 50.149 167.074 50.709 167.539C55.4349 171.457 61.3481 175.211 68.3945 177.547C71.0878 178.44 74.2438 179.332 77.7509 180.163C78.5777 180.359 79.1816 179.465 80.046 179.653C80.9812 179.856 82.18 181.142 83.1556 181.335C92.0392 183.091 102.521 184.356 113.201 184.373C118.184 184.38 123.174 184.09 127.993 183.587C128.903 183.492 129.845 182.135 130.742 182.026C131.859 181.889 132.927 182.996 134.019 182.839C143.654 181.456 152.23 179.322 158.159 177.224C160.008 176.569 162.16 175.63 163.887 174.668C164.927 174.089 165.125 173.015 165.701 172.479C166.534 171.703 167.491 171.91 168.78 170.672C174.486 165.189 188.183 151.986 188.183 151.986L170.419 146.536C169.63 147.369 168.805 148.184 167.943 148.98C167.013 149.835 166.041 150.668 165.03 151.476C164.019 152.284 162.969 153.068 161.881 153.826C160.794 154.584 159.67 155.315 158.511 156.02C157.352 156.724 156.159 157.4 154.935 158.048C153.71 158.695 152.455 159.312 151.171 159.9C149.886 160.487 148.573 161.043 147.234 161.567C145.896 162.091 144.532 162.583 143.145 163.042C141.758 163.501 140.35 163.926 138.921 164.318C137.493 164.709 136.047 165.067 134.584 165.389C133.121 165.711 131.643 165.998 130.152 166.25C128.661 166.502 127.159 166.718 125.647 166.897C124.135 167.077 122.615 167.22 121.089 167.327C119.563 167.434 118.033 167.505 116.5 167.538C114.968 167.572 113.434 167.569 111.902 167.529C110.37 167.489 108.84 167.413 107.315 167.299C105.79 167.187 104.272 167.037 102.761 166.852C101.251 166.666 99.75 166.444 98.2612 166.186C96.7725 165.929 95.2968 165.635 93.8366 165.307C92.3767 164.979 90.9332 164.616 89.5086 164.219C88.0838 163.822 86.6787 163.391 85.2959 162.926C83.9127 162.462 82.5526 161.964 81.2179 161.434C79.8836 160.904 78.5755 160.343 77.2959 159.751C76.016 159.159 74.7652 158.536 73.5459 157.884C72.327 157.232 71.1401 156.551 69.9874 155.842C68.8343 155.133 67.716 154.397 66.6346 153.634C65.5534 152.872 64.5097 152.084 63.5052 151.271C62.5005 150.459 61.5357 149.623 60.6125 148.764C59.7655 147.972 58.9542 147.161 58.1799 146.333Z" fill="#2B1100" stroke="black" stroke-width="1.68851" stroke-linejoin="bevel"/>
<path d="M58.1799 146.333C58.9543 147.161 59.7655 147.972 60.6125 148.764C61.5358 149.622 62.5006 150.459 63.5053 151.271C64.5097 152.083 65.5535 152.871 66.6347 153.634C67.7161 154.396 68.8344 155.133 69.9875 155.842C71.1402 156.551 72.327 157.232 73.546 157.884C74.7653 158.536 76.016 159.159 77.296 159.751C78.5756 160.343 79.8837 160.904 81.2179 161.433C82.5526 161.963 83.9128 162.461 85.2959 162.926C86.6788 163.391 88.0839 163.822 89.5087 164.219C90.9333 164.616 92.3768 164.979 93.8367 165.307C95.2968 165.635 96.7726 165.928 98.2613 166.186C99.75 166.443 101.251 166.665 102.761 166.851C104.272 167.037 105.79 167.186 107.315 167.299C108.84 167.412 110.37 167.489 111.902 167.529C113.434 167.568 114.968 167.572 116.501 167.538C118.033 167.504 119.564 167.434 121.089 167.327C122.615 167.22 124.135 167.077 125.647 166.897C127.159 166.717 128.661 166.501 130.152 166.25C131.643 165.998 133.121 165.711 134.584 165.388C136.047 165.066 137.493 164.709 138.922 164.318C140.35 163.926 141.758 163.5 143.145 163.041C144.532 162.583 145.896 162.091 147.234 161.567C148.573 161.043 149.886 160.486 151.171 159.899C152.455 159.312 153.71 158.694 154.935 158.047C156.159 157.4 157.352 156.724 158.511 156.019C159.67 155.315 160.794 154.583 161.882 153.826C162.969 153.068 164.019 152.284 165.03 151.476C166.041 150.667 167.013 149.835 167.943 148.98C168.805 148.184 169.63 147.369 170.419 146.536L159.101 143.065C159.101 143.065 155.386 93.4397 139.476 84.0419C123.565 74.644 103.825 74.2149 87.2835 85.4139C70.7418 96.613 70.4237 143.065 70.4237 143.065L58.1799 146.333Z" fill="#2B0000" stroke="black" stroke-width="1.68851" stroke-linejoin="bevel"/>
<path d="M158.591 162.338L160.242 164.853L165.388 172.699L166.172 172.044L158.591 162.338Z" fill="black"/>
<path d="M130.556 173.695L130.204 171.307L130.571 182.235L131.354 182.192L130.556 173.695Z" fill="black"/>
<path d="M84.8713 169.949L79.5433 179.495L80.4246 179.992L83.9743 171.976L84.8713 169.949Z" fill="black"/>
<path d="M61.1062 159.187L49.1423 164.444L49.5478 165.412L58.8064 160.478L61.1062 159.187Z" fill="black"/>
<path fill-rule="evenodd" clip-rule="evenodd" d="M100.397 145.317C100.397 145.317 109.189 130.608 101.148 121.261C101.148 121.261 102.541 117.686 105.436 115.899C105.436 115.899 107.366 122.772 111.977 126.896C111.977 126.896 110.261 118.099 106.723 115.624C106.723 115.624 109.296 110.126 112.298 109.026C112.298 109.026 111.012 113.287 112.405 117.274L115.407 127.446C115.407 127.446 120.768 117.273 119.589 109.576C119.589 109.576 124.092 114.249 124.842 116.174C124.842 116.174 122.376 116.586 121.197 120.711C120.039 124.761 117.338 131.845 117.338 131.845C117.338 131.845 120.982 135.282 122.376 137.344C122.376 137.344 119.91 122.91 125.593 117.686C125.593 117.686 128.595 119.337 129.559 121.261C129.559 121.261 124.199 124.422 125.593 134.32C127.043 144.616 129.774 144.492 129.774 144.492C129.774 144.492 125.057 150.403 124.199 150.678C124.199 150.678 124.198 142.293 116.694 135.007L116.586 145.592C116.586 145.592 118.194 148.754 118.516 148.891C118.838 149.029 115.3 150.266 110.904 148.891C110.904 148.891 113.155 145.729 113.048 143.393C112.941 141.056 112.941 132.395 112.941 132.395C112.941 132.395 107.473 126.347 106.83 125.109C106.83 125.109 108.866 132.945 105.436 146.554L105.221 150.541C105.221 150.541 100.719 146.691 100.397 145.317Z" fill="white"/>
<path fill-rule="evenodd" clip-rule="evenodd" d="M129.196 79.1567L128.414 79.8158C128.414 79.8158 131.311 83.197 132.252 86.6142C132.719 88.3109 133.137 90.8969 133.364 93.4272C133.59 95.9576 133.74 96.7825 133.74 96.7825L134.255 99.4221C134.255 99.4221 134.15 96.2846 133.922 93.73C133.693 91.1755 133.357 88.1816 132.841 86.3092C131.816 82.5883 129.196 79.1567 129.196 79.1567Z" fill="black"/>
<path fill-rule="evenodd" clip-rule="evenodd" d="M92.5735 82.1445L92.9821 86.3496L93.895 95.7605L94.0622 93.2386L94.0566 82.0947L92.5735 82.1445Z" fill="black"/>
<path d="M63.0608 145.515C63.0608 145.515 72.4114 153.707 79.3678 157.002C86.3242 160.296 95.3272 162.923 104.666 163.958C114.006 164.993 126.191 164.369 134.842 162.502C143.493 160.636 150.925 157.141 156.178 154.09C161.431 151.038 166.694 145.677 166.694 145.677" stroke="black" stroke-width="0.690755" stroke-linejoin="bevel" stroke-dasharray="5.53 1.38 0.69 1.38"/>
<path d="M158.994 142.345C158.994 142.345 149.911 151.267 145.916 151.78L143.766 152.41C150.108 152.065 159.839 143.411 159.839 143.411L158.994 142.345Z" fill="black"/>
<path d="M70.5883 142.526L69.9965 143.522C69.9965 143.522 82.7822 151.538 93.8143 152.971L91.5016 152.292C83.4702 151.303 70.5883 142.526 70.5883 142.526Z" fill="black"/>
<defs>
<filter id="filter0_d_229_21" x="0" y="0" width="213.874" height="254.187" filterUnits="userSpaceOnUse" color-interpolation-filters="sRGB">
<feFlood flood-opacity="0" result="BackgroundImageFix"/>
<feColorMatrix in="SourceAlpha" type="matrix" values="0 0 0 0 0 0 0 0 0 0 0 0 0 0 0 0 0 0 127 0" result="hardAlpha"/>
<feOffset dx="-8" dy="-4"/>
<feGaussianBlur stdDeviation="2"/>
<feComposite in2="hardAlpha" operator="out"/>
<feColorMatrix type="matrix" values="0 0 0 0 0 0 0 0 0 0 0 0 0 0 0 0 0 0 0.25 0"/>
<feBlend mode="normal" in2="BackgroundImageFix" result="effect1_dropShadow_229_21"/>
<feBlend mode="normal" in="SourceGraphic" in2="effect1_dropShadow_229_21" result="shape"/>
</filter>
</defs>
</svg>
