<svg width="314" height="43" viewBox="0 0 314 43" fill="none" xmlns="http://www.w3.org/2000/svg">
<path d="M22.5066 0.0893966C19.2318 0.0893966 16.1952 0.625091 13.3968 1.69682C10.6579 2.76855 8.27628 4.25709 6.25182 6.16243C4.28692 7.94864 2.73894 10.2111 1.60765 12.9501C0.654973 15.2722 0.119119 17.8026 0 20.5415V23.2208H7.85936V20.5415C7.97841 18.517 8.30592 16.8797 8.84179 15.6293C9.55627 13.9027 10.5387 12.3547 11.789 10.9853C13.2776 9.61586 14.8256 8.60369 16.4332 7.94876C18.279 7.23427 20.3034 6.87703 22.5064 6.87703H33.7597V0.0893966H22.5066ZM25.9007 20.1842L25.9008 21.881H25.9901C25.871 23.7863 25.5138 25.5428 24.9183 27.1504C24.1443 28.9962 23.1619 30.5144 21.9711 31.7053C20.6611 33.0153 19.1132 34.0274 17.3269 34.7419C15.4812 35.4564 13.4567 35.8136 11.2537 35.8136H0.000458438V42.6013H11.2537C14.5284 42.6013 17.5651 42.0654 20.3635 40.9936C23.1024 39.9219 25.484 38.4334 27.5084 36.528C29.5923 34.4441 31.1403 32.1817 32.1525 29.7405C33.2242 27.3588 33.7602 24.7391 33.7602 21.8811V20.1842H25.9007ZM53.5691 17.7732V0.000228538H46.0669V42.6911H53.5691V17.7732ZM74.0205 0.000228538V17.7732H60.9814V24.7396H74.0205V42.6909H81.4334V0L74.0205 0.000228538ZM107.584 35.814C106.691 35.6354 105.858 35.3674 105.083 35.0101C103.416 34.236 101.958 33.1643 100.707 31.7949C99.5165 30.5445 98.5638 28.9965 97.8493 27.1507C97.1944 25.305 96.8669 23.4295 96.8669 21.5241V21.3455V21.0776C96.8669 19.1127 97.1944 17.2075 97.8493 15.3617C98.6234 13.4564 99.5761 11.9381 100.707 10.8068C101.898 9.43737 103.327 8.39536 104.994 7.68088C106.006 7.20458 106.87 6.90691 107.584 6.78786V0.089511C105.5 0.387184 103.655 0.893315 102.047 1.60777C99.4272 2.73907 97.1944 4.25732 95.3486 6.16265C93.5028 8.06799 92.0441 10.3305 90.9724 12.9502C89.9007 15.5699 89.3648 18.3088 89.3648 21.1668V21.3454V21.6133C89.3648 24.5308 89.9006 27.2698 90.9724 29.8301C91.9251 32.3903 93.3541 34.6231 95.2593 36.5284C97.1646 38.4933 99.3974 40.0116 101.958 41.0833C103.565 41.7978 105.441 42.3039 107.584 42.6015V35.814ZM131.877 21.3457L131.877 21.0777C131.877 18.1602 131.341 15.4213 130.269 12.861C129.198 10.2413 127.739 7.97873 125.893 6.07351C124.107 4.16829 121.904 2.67964 119.284 1.60791C117.795 0.893418 115.98 0.387332 113.836 0.0896481V6.87728L114.908 7.23452C115.444 7.41314 115.861 7.56202 116.158 7.68108C117.825 8.45514 119.284 9.52686 120.534 10.8963C121.725 12.1467 122.678 13.6947 123.392 15.5404C124.047 17.3862 124.375 19.2617 124.375 21.1671V21.3457V21.6136C124.375 23.5785 124.047 25.4837 123.392 27.3295C122.618 29.2347 121.666 30.7531 120.534 31.8844C119.344 33.2538 117.915 34.2958 116.247 35.0103C115.473 35.3676 114.67 35.6355 113.836 35.8141V42.6017C115.622 42.3636 117.408 41.8574 119.195 41.0834C121.636 40.0712 123.869 38.553 125.893 36.5285C127.858 34.4446 129.317 32.1821 130.269 29.741C131.341 27.1213 131.877 24.3823 131.877 21.5244L131.877 21.3457ZM172.853 8.48491C172.079 6.8177 171.007 5.32916 169.638 4.01931C168.209 2.7689 166.512 1.78656 164.547 1.07207C162.404 0.417158 160.141 0.0896481 157.759 0.0896481H141.059V6.788H157.135C159.815 6.788 162.047 7.44291 163.834 8.75289C165.501 10.0033 166.334 11.9085 166.334 14.4688C166.334 16.7909 165.53 18.6664 163.923 20.0954C162.196 21.4648 159.934 22.1496 157.135 22.1496H141.059V42.6022H148.472V28.9378H156.867C159.07 28.9378 161.303 28.6103 163.565 27.9554C165.649 27.3004 167.435 26.3775 168.924 25.1868C170.472 23.9961 171.693 22.4777 172.586 20.6319C173.479 18.8457 173.925 16.7618 173.925 14.3801C173.925 12.1176 173.567 10.1521 172.853 8.48491ZM219.723 8.48491C218.949 6.8177 217.877 5.32916 216.508 4.01931C215.079 2.7689 213.382 1.78656 211.417 1.07207C209.274 0.417158 207.011 0.0896481 204.63 0.0896481H187.929V6.788H204.006C206.685 6.788 208.918 7.44291 210.704 8.75289C212.371 10.0033 213.205 11.9085 213.205 14.4688C213.205 16.7909 212.401 18.6664 210.793 20.0954C209.067 21.4648 206.804 22.1496 204.006 22.1496H187.929V42.6022H195.342V28.9378H203.737C205.94 28.9378 208.173 28.6103 210.436 27.9554C212.52 27.3004 214.306 26.3775 215.794 25.1868C217.342 23.9961 218.563 22.4777 219.456 20.6319C220.349 18.8457 220.796 16.7618 220.796 14.3801C220.796 12.1176 220.438 10.1521 219.723 8.48491ZM254.982 17.7732V0.000228538H247.48V42.6911H254.982V17.7732ZM282.205 0.0893966H314V6.87703H282.205V0.0893966ZM282.205 35.814H313.91V42.6016H282.205V35.814ZM282.205 17.7732H310.873V24.4716H282.205V17.7732Z" fill="#ABC4AB"/>
</svg>
