<svg width="775" height="106" viewBox="0 0 775 106" fill="none" xmlns="http://www.w3.org/2000/svg">
<path d="M55.5497 0.220645C47.4671 0.220645 39.9722 1.54282 33.0654 4.18802C26.3052 6.83321 20.4271 10.5071 15.4305 15.2098C10.5808 19.6185 6.76013 25.2026 3.96794 31.9627C1.61657 37.6941 0.294005 43.9396 0 50.6994V57.3126H19.3981V50.6994C19.6919 45.7028 20.5003 41.6618 21.8229 38.5756C23.5863 34.3139 26.0112 30.4933 29.0971 27.1133C32.771 23.7334 36.592 21.2352 40.5596 19.6188C45.1153 17.8553 50.1119 16.9736 55.5493 16.9736H83.324V0.220645H55.5497ZM63.9268 49.8177L63.9271 54.0057H64.1475C63.8536 58.7081 62.9719 63.0434 61.5023 67.0113C59.5918 71.567 57.167 75.3143 54.2281 78.2535C50.9949 81.4867 47.1742 83.9849 42.7656 85.7484C38.2099 87.5118 33.2132 88.3936 27.7758 88.3936H0.0011315V105.146H27.7758C35.8584 105.146 43.3533 103.824 50.2601 101.179C57.0203 98.5333 62.8984 94.8594 67.8951 90.1567C73.0384 85.0134 76.8591 79.4292 79.3573 73.4041C82.0025 67.5257 83.3252 61.0599 83.3252 54.006V49.8177H63.9268ZM132.217 43.8671V0.000564066H113.7V105.368H132.217V43.8671ZM182.694 0.000564066V43.8671H150.512V61.061H182.694V105.368H200.99V0L182.694 0.000564066ZM265.535 88.3944C263.33 87.9535 261.273 87.292 259.362 86.4103C255.247 84.4998 251.647 81.8546 248.561 78.4747C245.622 75.3885 243.271 71.5679 241.507 67.0122C239.891 62.4565 239.082 57.8275 239.082 53.1248V52.684V52.0227C239.082 47.173 239.891 42.4706 241.507 37.915C243.418 33.2126 245.769 29.465 248.561 26.6728C251.5 23.2929 255.027 20.721 259.142 18.9576C261.64 17.782 263.771 17.0473 265.535 16.7535V0.220927C260.391 0.955628 255.835 2.20484 251.868 3.96822C245.402 6.76044 239.891 10.5077 235.335 15.2104C230.779 19.913 227.179 25.4972 224.534 31.963C221.889 38.4288 220.566 45.189 220.566 52.2428V52.6837V53.345C220.566 60.5459 221.888 67.306 224.534 73.6251C226.885 79.9443 230.412 85.455 235.115 90.1577C239.817 95.0073 245.328 98.7546 251.647 101.4C255.615 103.163 260.244 104.412 265.535 105.147V88.3944ZM325.492 52.6844L325.492 52.0231C325.492 44.8222 324.17 38.0621 321.525 31.743C318.879 25.2771 315.279 19.6927 310.723 14.9903C306.315 10.288 300.877 6.61375 294.411 3.96856C290.737 2.20509 286.255 0.955995 280.965 0.221265V16.9742L283.61 17.8559C284.933 18.2968 285.961 18.6642 286.696 18.9581C290.811 20.8686 294.411 23.5137 297.497 26.8937C300.436 29.9799 302.788 33.8005 304.551 38.3562C306.168 42.9119 306.976 47.5409 306.976 52.2435V52.6844V53.3457C306.976 58.1954 306.168 62.8978 304.551 67.4534C302.641 72.1558 300.289 75.9034 297.497 78.6956C294.558 82.0755 291.031 84.6473 286.916 86.4108C285.006 87.2925 283.022 87.9539 280.965 88.3947V105.148C285.373 104.56 289.782 103.311 294.191 101.4C300.216 98.9019 305.726 95.1546 310.723 90.1579C315.573 85.0145 319.173 79.4304 321.524 73.4053C324.169 66.9394 325.492 60.1793 325.492 53.1254L325.492 52.6844ZM426.628 20.9421C424.717 16.8271 422.072 13.1532 418.692 9.92026C415.165 6.83406 410.977 4.40951 406.127 2.64604C400.837 1.02961 395.253 0.221265 389.374 0.221265H348.154V16.7538H387.834C394.447 16.7538 399.958 18.3702 404.366 21.6035C408.481 24.6897 410.538 29.3921 410.538 35.7112C410.538 41.4426 408.554 46.0716 404.587 49.5985C400.325 52.9785 394.741 54.6686 387.834 54.6686H348.155V105.149H366.451V71.4229H387.171C392.609 71.4229 398.12 70.6146 403.704 68.9981C408.847 67.3817 413.256 65.1038 416.93 62.1649C420.751 59.226 423.763 55.4784 425.968 50.9227C428.172 46.5141 429.274 41.3707 429.274 35.4923C429.274 29.9082 428.391 25.057 426.628 20.9421ZM542.311 20.9421C540.4 16.8271 537.755 13.1532 534.375 9.92026C530.848 6.83406 526.66 4.40951 521.81 2.64604C516.52 1.02961 510.936 0.221265 505.057 0.221265H463.838V16.7538H503.517C510.13 16.7538 515.641 18.3702 520.049 21.6035C524.164 24.6897 526.222 29.3921 526.222 35.7112C526.222 41.4426 524.238 46.0716 520.27 49.5985C516.008 52.9785 510.424 54.6686 503.517 54.6686H463.838V105.149H482.134V71.4229H502.855C508.292 71.4229 513.803 70.6146 519.387 68.9981C524.531 67.3817 528.939 65.1038 532.613 62.1649C536.434 59.226 539.447 55.4784 541.651 50.9227C543.855 46.5141 544.957 41.3707 544.957 35.4923C544.957 29.9082 544.074 25.057 542.311 20.9421ZM629.336 43.8671V0.000564066H610.819V105.368H629.336V43.8671ZM696.525 0.220645H775V16.9736H696.525V0.220645ZM696.525 88.3944H774.777V105.147H696.525V88.3944ZM696.525 43.8671H767.283V60.3996H696.525V43.8671Z" fill="#A4D792"/>
</svg>
