<svg width="216" height="263" viewBox="0 0 216 263" fill="none" xmlns="http://www.w3.org/2000/svg">
<rect width="215.66" height="262.928" fill="#F24141"/>
<path d="M138.991 64.2944L138.873 64.3425C138.873 64.3425 124.937 78.7459 133.357 108.371C141.777 137.997 127.18 157.786 127.18 157.786L127.765 157.674L175.031 106.652L138.991 64.2944Z" fill="#000080" stroke="black" stroke-width="0.999999"/>
<path d="M72.3546 217.49C72.3301 217.31 72.3329 217.311 72.2857 216.99C72.1847 216.302 72.03 215.309 71.8183 214.09C71.7125 213.481 71.593 212.815 71.4577 212.103C71.3225 211.391 71.1725 210.632 71.0066 209.837C70.8406 209.043 70.659 208.21 70.4612 207.353C70.2634 206.495 70.0488 205.611 69.818 204.71C69.5871 203.809 69.3402 202.891 69.0751 201.967C68.81 201.043 68.5277 200.113 68.2272 199.186C68.0769 198.722 67.9209 198.258 67.7615 197.797C67.6022 197.337 67.4391 196.878 67.2705 196.422C67.1019 195.967 66.9285 195.516 66.7505 195.068C66.5725 194.621 66.389 194.176 66.2015 193.739C66.014 193.302 65.8225 192.871 65.6253 192.447C65.4282 192.022 65.2254 191.604 65.0184 191.195C64.8114 190.785 64.5994 190.386 64.3824 189.994C64.1654 189.603 63.9446 189.221 63.7175 188.85C63.4903 188.479 63.2573 188.117 63.0199 187.769C62.7825 187.421 62.5412 187.086 62.2933 186.763C62.0455 186.44 61.7908 186.13 61.5324 185.834C61.274 185.539 61.0115 185.257 60.7424 184.992C60.4732 184.727 60.2041 184.471 59.9361 184.222C59.6681 183.973 59.4016 183.732 59.1352 183.499C58.869 183.266 58.6022 183.04 58.338 182.822C58.0739 182.605 57.8115 182.394 57.5499 182.191C57.0267 181.786 56.509 181.41 55.9989 181.06C55.4889 180.711 54.9865 180.387 54.4933 180.089C54.0001 179.791 53.5164 179.518 53.0438 179.268C52.5712 179.018 52.1096 178.79 51.6613 178.583C51.2131 178.376 50.7788 178.191 50.3586 178.024C49.9384 177.856 49.5331 177.708 49.1446 177.575C48.7562 177.443 48.3833 177.326 48.0304 177.226C47.6775 177.124 47.3439 177.038 47.0302 176.964C46.7165 176.89 46.424 176.829 46.1533 176.777C45.8826 176.726 45.6344 176.685 45.4104 176.652C44.9624 176.587 44.6111 176.553 44.3722 176.537C44.2953 176.533 44.3076 176.534 44.2544 176.53C41.0095 183.509 38.1829 190.622 36.2333 197.75C33.092 209.235 36.1605 224.456 43.064 231.183C49.9675 237.91 61.8168 228.866 61.8168 228.866L72.3546 217.49Z" fill="#000080" stroke="black" stroke-width="0.999999"/>
<path d="M107.679 51.7332C106.337 54.5194 103.028 59.3152 98.8673 63.1573C83.3215 77.5128 64.7339 71.5167 64.7339 71.5167C68.6574 81.9284 73.5469 96.8539 74.4128 108.616C75.5905 124.612 56.7894 149.57 44.2544 176.531C44.3076 176.533 44.2953 176.532 44.3722 176.538C44.6111 176.553 44.9623 176.588 45.4104 176.654C45.6344 176.687 45.8825 176.727 46.1532 176.779C46.4239 176.83 46.7165 176.891 47.0302 176.965C47.3438 177.039 47.6774 177.126 48.0303 177.227C48.3832 177.328 48.7562 177.445 49.1446 177.577C49.533 177.709 49.9384 177.857 50.3586 178.025C50.7787 178.192 51.213 178.378 51.6613 178.585C52.1095 178.791 52.5711 179.019 53.0437 179.269C53.5163 179.52 54 179.793 54.4932 180.091C54.9864 180.389 55.4888 180.712 55.9989 181.062C56.5089 181.412 57.0266 181.787 57.5498 182.193C57.8114 182.396 58.0738 182.606 58.338 182.824C58.6022 183.041 58.8689 183.268 59.1352 183.501C59.4015 183.734 59.6681 183.975 59.9361 184.224C60.204 184.473 60.4732 184.728 60.7423 184.993C61.0115 185.258 61.2739 185.54 61.5323 185.836C61.7907 186.131 62.0454 186.442 62.2933 186.765C62.5411 187.088 62.7824 187.422 63.0198 187.771C63.2572 188.119 63.4903 188.48 63.7174 188.851C63.9446 189.223 64.1654 189.604 64.3824 189.996C64.5994 190.387 64.8113 190.787 65.0183 191.196C65.2253 191.605 65.4281 192.024 65.6253 192.448C65.8225 192.873 66.014 193.303 66.2015 193.741C66.389 194.178 66.5725 194.622 66.7505 195.07C66.9284 195.517 67.1019 195.968 67.2705 196.424C67.4391 196.879 67.6021 197.338 67.7615 197.799C67.9208 198.26 68.0769 198.724 68.2271 199.187C68.5277 200.115 68.81 201.045 69.0751 201.969C69.3402 202.893 69.5871 203.81 69.818 204.711C70.0488 205.612 70.2634 206.496 70.4612 207.354C70.6589 208.212 70.8406 209.044 71.0065 209.839C71.1725 210.634 71.3224 211.393 71.4577 212.105C71.5929 212.817 71.7124 213.482 71.8182 214.091C72.0299 215.31 72.1847 216.303 72.2857 216.992C72.3328 217.313 72.33 217.311 72.3546 217.492L127.765 157.676L127.18 157.788C127.18 157.788 130.428 133.366 124.973 109.31C119.518 85.2539 138.873 64.3442 138.873 64.3442L138.991 64.2961L136.167 60.9764C136.157 60.9906 136.074 61.1149 136.074 61.1149C136.074 61.1149 135.957 61.241 135.739 61.4611C135.63 61.5711 135.496 61.7046 135.339 61.8573C135.181 62.01 135.002 62.1817 134.8 62.3689C134.599 62.5561 134.376 62.7575 134.134 62.9709C133.892 63.1844 133.631 63.4088 133.353 63.6403C133.074 63.8718 132.779 64.1106 132.469 64.3519C132.313 64.4725 132.153 64.5938 131.99 64.7154C131.828 64.837 131.661 64.9594 131.492 65.0808C131.323 65.2023 131.151 65.324 130.976 65.4444C130.8 65.5647 130.621 65.6839 130.439 65.8021C130.258 65.9202 130.073 66.0372 129.887 66.1521C129.7 66.2671 129.511 66.3799 129.32 66.4906C129.128 66.6014 128.934 66.7102 128.738 66.8157C128.542 66.9211 128.343 67.0223 128.144 67.1215C127.944 67.2207 127.743 67.3162 127.54 67.4081C127.337 67.5 127.134 67.588 126.928 67.6716C126.722 67.7552 126.514 67.8359 126.306 67.9101C126.098 67.9843 125.889 68.0521 125.679 68.1159C125.47 68.1797 125.26 68.2385 125.049 68.2909C124.838 68.3433 124.627 68.3894 124.415 68.4294C124.203 68.4694 123.991 68.5029 123.779 68.5294C123.673 68.5428 123.568 68.5543 123.462 68.564C123.356 68.5737 123.249 68.583 123.143 68.589C123.037 68.5949 122.932 68.5983 122.826 68.6005C122.72 68.6027 122.614 68.6023 122.509 68.6005C122.403 68.5988 122.299 68.5949 122.193 68.589C122.088 68.583 121.983 68.5759 121.878 68.5659C121.773 68.5558 121.668 68.5428 121.563 68.5255C121.458 68.5084 121.353 68.488 121.248 68.464C121.143 68.4401 121.037 68.4119 120.932 68.3812C120.827 68.3507 120.722 68.3164 120.617 68.2793C120.512 68.2421 120.409 68.2033 120.304 68.1601C120.199 68.1168 120.093 68.0708 119.988 68.0215C119.884 67.9724 119.779 67.9187 119.675 67.8638C119.57 67.8089 119.466 67.7511 119.361 67.6907C119.257 67.6303 119.154 67.5679 119.05 67.5022C118.946 67.4366 118.842 67.369 118.738 67.2984C118.635 67.2277 118.532 67.1546 118.428 67.0791C118.325 67.0036 118.221 66.9245 118.119 66.8445C118.016 66.7644 117.914 66.6826 117.812 66.5983C117.71 66.5139 117.608 66.4271 117.506 66.3386C117.303 66.1617 117.101 65.9767 116.901 65.7847C116.701 65.5927 116.504 65.3937 116.307 65.1885C116.11 64.9833 115.913 64.7723 115.72 64.5557C115.526 64.3392 115.336 64.1182 115.147 63.8922C114.958 63.6661 114.77 63.4354 114.585 63.2017C114.401 62.9679 114.218 62.7315 114.038 62.492C113.859 62.2524 113.682 62.0104 113.507 61.7668C113.333 61.5233 113.161 61.2778 112.993 61.0321C112.824 60.7865 112.66 60.5396 112.498 60.2936C112.336 60.0476 112.177 59.8014 112.022 59.5569C111.866 59.3125 111.715 59.069 111.567 58.828C111.419 58.587 111.274 58.3483 111.134 58.1125C110.993 57.8767 110.857 57.645 110.724 57.4163C110.46 56.9588 110.211 56.5168 109.981 56.0988C109.752 55.6807 109.542 55.2857 109.351 54.9217C109.16 54.5577 108.99 54.2243 108.842 53.9292C108.693 53.6342 108.568 53.3772 108.465 53.1657C108.26 52.7428 108.15 52.5021 108.15 52.5021C108.15 52.5021 107.954 51.4903 107.679 51.7332Z" fill="#800000" stroke="black" stroke-width="0.999999"/>
<path d="M107.679 51.7333C107.759 51.863 108.15 52.5007 108.15 52.5007C108.15 52.5007 108.26 52.7413 108.465 53.1643C108.568 53.3757 108.694 53.6328 108.842 53.9278C108.99 54.2229 109.16 54.5563 109.351 54.9203C109.542 55.2842 109.752 55.6793 109.982 56.0974C110.211 56.5154 110.46 56.9574 110.724 57.4148C110.857 57.6435 110.994 57.8753 111.134 58.1111C111.274 58.3469 111.419 58.5855 111.567 58.8266C111.715 59.0676 111.866 59.3111 112.022 59.5555C112.177 59.7999 112.336 60.0462 112.498 60.2921C112.66 60.5381 112.825 60.785 112.993 61.0307C113.161 61.2764 113.333 61.5219 113.507 61.7654C113.682 62.009 113.859 62.251 114.038 62.4905C114.218 62.7301 114.401 62.9665 114.586 63.2002C114.77 63.434 114.958 63.6647 115.147 63.8907C115.336 64.1168 115.526 64.3377 115.72 64.5543C115.913 64.7708 116.11 64.9819 116.307 65.1871C116.504 65.3922 116.701 65.5913 116.901 65.7833C117.101 65.9753 117.303 66.1602 117.506 66.3372C117.608 66.4257 117.71 66.5125 117.812 66.5969C117.915 66.6812 118.016 66.763 118.119 66.843C118.221 66.9231 118.325 67.0022 118.428 67.0777C118.532 67.1532 118.635 67.2263 118.738 67.2969C118.842 67.3676 118.946 67.4352 119.05 67.5008C119.154 67.5665 119.257 67.6289 119.362 67.6893C119.466 67.7497 119.571 67.8075 119.675 67.8624C119.78 67.9173 119.884 67.9709 119.988 68.0201C120.093 68.0693 120.199 68.1154 120.304 68.1586C120.409 68.2019 120.512 68.2408 120.617 68.2779C120.722 68.3151 120.827 68.3492 120.932 68.3798C121.038 68.4103 121.143 68.4385 121.248 68.4625C121.353 68.4863 121.458 68.5069 121.563 68.5241C121.668 68.5412 121.773 68.5546 121.878 68.5644C121.983 68.5745 122.088 68.5816 122.194 68.5875C122.299 68.5935 122.403 68.5972 122.509 68.5991C122.614 68.6008 122.72 68.6013 122.826 68.5991C122.932 68.5969 123.037 68.5935 123.143 68.5875C123.249 68.5816 123.356 68.5723 123.462 68.5626C123.568 68.5529 123.673 68.5414 123.779 68.528C123.991 68.5016 124.203 68.468 124.415 68.428C124.627 68.388 124.838 68.3419 125.049 68.2895C125.26 68.2371 125.47 68.1783 125.68 68.1144C125.889 68.0506 126.099 67.9829 126.306 67.9087C126.514 67.8345 126.722 67.7537 126.928 67.6702C127.134 67.5866 127.337 67.4986 127.54 67.4067C127.743 67.3148 127.944 67.2193 128.144 67.1201C128.343 67.0209 128.542 66.9197 128.738 66.8142C128.934 66.7088 129.128 66.5999 129.32 66.4892C129.511 66.3785 129.7 66.2656 129.887 66.1507C130.073 66.0358 130.258 65.9188 130.439 65.8007C130.621 65.6825 130.8 65.5632 130.976 65.4429C131.151 65.3226 131.323 65.2009 131.492 65.0794C131.661 64.958 131.828 64.8355 131.99 64.714C132.153 64.5924 132.313 64.4711 132.469 64.3505C132.779 64.1092 133.075 63.8703 133.353 63.6388C133.631 63.4074 133.892 63.183 134.134 62.9695C134.376 62.7561 134.599 62.5547 134.8 62.3675C135.002 62.1803 135.181 62.0086 135.339 61.8559C135.496 61.7032 135.63 61.5697 135.739 61.4597C135.957 61.2396 136.074 61.1135 136.074 61.1135C136.074 61.1135 136.157 60.9893 136.167 60.975L130.56 54.3726L119.196 41.0248L110.125 30.3689L110.177 31.1382C110.177 31.1382 112.524 40.8806 107.679 51.7333Z" fill="#000080" stroke="black" stroke-width="0.999999"/>
<path d="M60.1618 141.266L59.0006 143.086C58.4842 143.895 58.7835 144.767 59.669 145.034L66.7888 147.183C67.6743 147.451 68.8107 147.011 69.327 146.202L70.4883 144.383C71.0046 143.574 70.7053 142.701 69.8198 142.434L62.7 140.285C61.8145 140.018 60.6781 140.457 60.1618 141.266Z" fill="black"/>
<path d="M56.1906 148.058L55.0294 149.877C54.513 150.686 54.8123 151.559 55.6978 151.826L62.8177 153.975C63.7032 154.242 64.8395 153.803 65.3559 152.994L66.5171 151.174C67.0334 150.365 66.7342 149.493 65.8487 149.226L58.7288 147.077C57.8433 146.809 56.7069 147.249 56.1906 148.058Z" fill="black"/>
<path d="M52.4401 154.615L51.2789 156.435C50.7626 157.244 51.0618 158.116 51.9473 158.384L59.0672 160.532C59.9527 160.8 61.0891 160.361 61.6054 159.551L62.7666 157.732C63.2829 156.923 62.9837 156.05 62.0982 155.783L54.9783 153.634C54.0928 153.367 52.9564 153.806 52.4401 154.615Z" fill="black"/>
<path d="M64.7339 71.5168C64.7339 71.5168 83.0073 64.7963 91.4581 57.304C99.9089 49.8118 109.631 29.3994 109.631 29.3994L87.6603 52.5594C81.6834 58.2326 71.5817 65.4455 64.7339 71.5168Z" fill="black"/>
<path d="M109.571 29L87.3323 52.2123C81.401 57.8376 70.8459 64.674 63.9714 70.769L64.8846 71.9848C64.8846 71.9848 69.4731 70.299 75.1155 67.6741C80.7578 65.0492 87.4568 61.4904 91.756 57.6788C96.0734 53.8512 100.612 46.8575 104.11 40.7995C107.607 34.7414 109.91 29.5158 109.91 29.5158L109.571 29ZM107.582 32.2508C106.687 34.0576 105.829 35.9297 103.315 40.2834C99.8392 46.3045 95.2938 53.2582 91.1603 56.9228C87.0087 60.6034 80.3458 64.1571 74.7388 66.7655C70.7842 68.6052 69.2538 69.1389 67.5758 69.7895C74.2011 64.2178 82.6135 58.0083 87.9691 52.9247L87.9761 52.9173L107.582 32.2508Z" fill="black"/>
<path d="M175.1 107.083L174.789 107.309L61.5751 229.524C61.5751 229.524 57.4177 232.696 52.5938 233.886C54.1507 234.073 59.041 234.601 63.2837 234.328C68.3543 234.003 71.1843 232.337 74.4394 229.668C77.6945 227 80.3153 217.842 80.3153 217.842C80.3153 217.842 90.2845 216.599 92.2844 213.343C94.2844 210.087 95.1834 202.897 95.1834 202.897C95.1834 202.897 102.831 201.868 106.294 198.043C109.757 194.218 111.2 185.297 111.2 185.297C111.2 185.297 117.968 166.335 126.645 166.092C135.321 165.85 139.503 163.623 139.503 163.623C139.503 163.623 180.521 134.148 180.451 120.147C180.391 107.918 175.355 106.844 175.325 107.062L175.1 107.083Z" fill="url(#paint0_linear_229_70)" stroke="black" stroke-width="0.999999"/>
<path d="M63.7333 134.401L62.5721 136.221C62.0558 137.03 62.355 137.902 63.2405 138.169L70.3604 140.318C71.2459 140.586 72.3823 140.146 72.8986 139.337L74.0598 137.518C74.5761 136.709 74.2769 135.836 73.3914 135.569L66.2715 133.42C65.386 133.153 64.2496 133.592 63.7333 134.401Z" fill="black"/>
<path d="M119.734 41.6025L116.499 43.8316C115.405 44.5853 115.187 46.0657 116.012 47.1381L122.209 55.1967C123.034 56.2692 124.589 56.5275 125.683 55.7738L128.918 53.5448C130.012 52.7911 130.23 51.3107 129.405 50.2382L123.208 42.1796C122.384 41.1072 120.828 40.8488 119.734 41.6025Z" fill="black"/>
<path d="M130.403 156.587C132.547 158.618 134.033 160.92 135.233 163.581Z" fill="black"/>
<path d="M140.883 149.796C142.928 152.03 144.347 154.563 145.492 157.492Z" fill="black"/>
<path d="M168.019 125.674C170.31 127.67 171.898 129.933 173.18 132.55Z" fill="black"/>
<path d="M161.952 136.856C163.214 138.173 164.09 139.665 164.796 141.391Z" fill="black"/>
<path d="M150.528 140.726C152.084 142.349 153.163 144.188 154.034 146.315Z" fill="black"/>
<path d="M137.449 148.23L136.37 149.133C137.926 150.756 139.005 151.219 139.876 153.346C140.02 153.696 141.439 156.884 141.439 156.884L142.476 158.677C142.476 158.677 141.937 157.471 141.146 155.232C140.355 152.994 137.449 148.968 137.449 148.23Z" fill="black"/>
<path d="M133.229 152.475L132.812 153.056C134.369 154.679 135.729 156.714 136.236 156.976C136.622 157.175 137.665 158.006 138.129 158.055L140.159 158.97C140.159 158.97 137.489 157.071 136.706 156.901C133.641 156.236 133.229 144.448 133.229 152.475Z" fill="black"/>
<path d="M141.171 143.458L140.755 144.039C142.311 145.662 144.052 148.262 144.923 150.389C145.066 150.739 145.741 151.849 145.741 151.849L147.716 153.993C147.716 153.993 145.743 151.733 144.952 149.495C144.161 147.256 142.907 145.268 141.171 143.458Z" fill="black"/>
<path d="M154.133 129.875L153.716 130.456C155.272 132.079 156.351 133.918 157.222 136.045C157.366 136.394 158.424 138.017 158.424 138.017L160.855 140.366C160.855 140.366 158.926 138.348 157.936 136.2C157.496 135.245 155.868 131.685 154.133 129.875Z" fill="black"/>
<path fill-rule="evenodd" clip-rule="evenodd" d="M79.7073 150.716C81.5674 158.956 84.5948 167.914 88.6696 171.439C90.2024 172.765 91.8839 173.322 93.7073 172.782C96.3328 172.005 98.1252 170.215 99.3963 167.998C101.254 164.758 101.994 160.604 102.588 157.363C103.588 151.905 113.292 90.4213 113.292 90.4213C113.36 89.8065 113.074 89.6897 112.869 90.3571C112.787 90.6266 95.2946 151.338 95.2946 151.338C94.9728 152.496 94.5236 153.593 93.9587 154.601C91.7441 158.528 87.9337 160.459 84.1091 157.169C82.6127 155.882 81.1135 153.795 79.7073 150.716Z" fill="white"/>
<path d="M137.757 63.1802C137.757 63.1802 130.969 71.1084 128.626 75.0713C126.284 79.0341 124.69 82.7181 123.552 86.6054C122.413 90.4926 121.87 94.9903 121.732 98.1395C121.594 101.289 122.228 105.341 122.228 105.341C122.228 105.341 123.11 111.214 123.717 114.357C124.325 117.5 124.776 120.16 125.151 124.194C125.527 128.228 125.768 133.773 125.758 138.187C125.749 142.601 125.961 147.037 125.813 150.658C125.666 154.278 125.427 159.908 125.427 159.908" stroke="black" stroke-width="1.00157" stroke-dasharray="2 1 0.5 1"/>
<path d="M140.54 66.1719C140.54 66.1719 136.137 74.1853 135.024 78.5842C133.911 82.9831 133.403 87.5037 133.7 92.5188C133.997 97.534 135.846 103.423 136.679 108.327C137.512 113.231 138.181 117.679 138.444 122.027C138.706 126.376 139.133 130.187 138.333 134.791C137.534 139.395 134.804 149.662 134.804 149.662" stroke="black" stroke-width="0.999999" stroke-dasharray="2 1 0.5 1"/>
<path d="M108.585 49.7666C108.585 49.7666 111.62 55.3133 113.109 57.5498C114.597 59.7864 116.32 62.3098 117.789 63.7599C119.258 65.21 120.122 66.0873 121.533 66.4923C122.943 66.8973 124.144 66.618 125.745 66.1611C127.346 65.7042 129.314 64.5567 130.893 63.5115C132.472 62.4662 135.183 59.9511 135.183 59.9511" stroke="black" stroke-width="0.999999" stroke-dasharray="2 1 0.5 1"/>
<path d="M111.861 96.0521C111.861 96.0521 112.594 93.3242 109.833 102.842C107.072 112.359 97.1411 150.226 95.6364 153.267C94.1317 156.308 93.8 156.987 92.5164 158.111C91.2327 159.235 89.8117 159.936 88.3043 159.974C86.7969 160.012 85.557 159.281 84.1702 158.152C82.7835 157.024 80.5042 153.102 80.5042 153.102L81.5182 156.538C81.5182 156.538 82.4427 159.283 83.0002 160.719C83.5577 162.156 84.1614 163.732 84.8722 165.149C85.5831 166.566 86.4892 168.177 87.2513 169.206C88.0134 170.235 88.4953 170.834 89.2793 171.401C90.0633 171.968 90.93 172.453 91.8533 172.56C92.7767 172.667 93.7478 172.35 94.5834 172.022C95.419 171.694 96.0492 171.343 96.8064 170.655C97.5637 169.968 98.3395 168.889 98.9515 167.84C99.5634 166.792 99.9759 165.701 100.433 164.404C100.891 163.107 101.367 161.315 101.643 160.057C101.918 158.799 111.861 96.0521 111.861 96.0521Z" stroke="black" stroke-width="0.377953" stroke-dasharray="2.27 0.76"/>
<path d="M79.0022 215.735L77.9211 214.193L79.9071 217.937L80.7151 217.457L79.0022 215.735Z" fill="black"/>
<path d="M92.3574 198.834L94.3616 202.094L94.8357 203.013L95.5685 202.402L92.3574 198.834Z" fill="black"/>
<path d="M103.704 192.887L101.426 190.108L106.778 197.779L107.45 197.103L103.704 192.887Z" fill="black"/>
<path d="M106.726 185.241L107.73 186.708L109.709 189.754L110.476 189.194L106.726 185.241Z" fill="black"/>
<path d="M87.5059 209.295L88.6726 210.638L91.5419 214.157L92.2403 213.51L87.5059 209.295Z" fill="black"/>
<path d="M60.5189 232.38L59.189 232.025L64.2799 234.642L64.8688 233.886L60.5189 232.38Z" fill="black"/>
<path d="M69.1069 223.337L72.2442 226.689L74.4492 229.27L75.1409 228.608L69.1069 223.337Z" fill="black"/>
<path d="M174.893 107.61L174.476 108.191C176.032 109.814 177.111 111.653 177.982 113.78C178.125 114.129 178.91 116 178.91 116L179.782 119.55C179.782 119.55 179.409 116.588 178.618 114.349C177.827 112.11 176.628 109.419 174.893 107.61Z" fill="black"/>
<path d="M168.418 114.477L168.001 115.058C169.666 116.962 171.568 121.03 171.37 120.383C171.259 120.02 172.381 122.106 172.381 122.106L176.12 126.651C176.12 126.651 172.19 120.907 172.061 120.542C171.269 118.304 168.418 115.349 168.418 114.477Z" fill="black"/>
<path d="M162.369 120.818L161.952 121.399C163.508 123.022 165.47 126.032 165.734 126.812C165.856 127.171 166.772 129.325 166.772 129.325L170.016 132.816C170.016 132.816 167.083 129.919 166.48 127.615C166.185 126.489 164.104 122.628 162.369 120.818Z" fill="black"/>
<path d="M165.397 117.887L164.98 118.468C166.536 120.091 168.278 123.006 168.486 124.056C168.56 124.43 169.414 125.863 169.414 125.863L171.924 127.425C171.924 127.425 169.463 125.467 169.122 124.626C168.645 123.449 167.132 119.696 165.397 117.887Z" fill="black"/>
<path d="M145.804 139.302L145.232 139.675C146.788 141.298 148.023 143.344 148.894 145.471C149.037 145.821 149.822 147.692 149.822 147.692L150.616 149.295C150.616 149.295 150.087 148.113 149.296 145.875C148.505 143.636 145.804 139.289 145.804 139.302Z" fill="black"/>
<path d="M150.635 133.714L150.219 134.295C151.775 135.918 152.893 137.425 153.764 139.552C153.907 139.902 154.809 141.732 154.809 141.732L154.979 142.383C154.979 142.383 155.152 142.691 154.361 140.453C153.57 138.214 152.37 135.523 150.635 133.714Z" fill="black"/>
<path d="M158.656 125.484L157.927 126.148C159.483 127.771 160.562 129.485 161.433 131.612C161.576 131.962 162.673 133.46 162.673 133.46L167.016 137.962C167.016 137.962 162.398 132.622 162.381 132.223C162.357 131.671 158.717 125.321 158.734 125.277L158.656 125.484Z" fill="black"/>
<path d="M171.065 112.018L170.337 112.557C171.893 114.18 173.46 116.06 174.331 118.187C174.474 118.537 175.259 120.305 175.259 120.305L176.52 122.57C176.52 122.57 175.27 119.898 174.791 118.756C173.874 116.572 172.049 112.54 171.026 111.997L171.065 112.018Z" fill="black"/>
<path d="M173.217 109.5L172.8 110.081C174.356 111.704 174.772 112.053 175.643 114.179C175.786 114.529 176.708 116.731 176.708 116.731L177.902 118.845C177.902 118.845 177.67 118.502 176.942 116.239C176.521 114.932 174.952 111.31 173.217 109.5Z" fill="black"/>
<path d="M79.6602 66.5393C81.2653 68.0601 82.3782 69.7835 83.2766 71.7766Z" fill="black"/>
<path d="M84.1831 63.6118C86.082 65.6426 87.3986 67.944 88.4614 70.6056Z" fill="black"/>
<path d="M88.2644 61.9724C89.8206 63.7992 90.8996 65.8694 91.7706 68.2636Z" fill="black"/>
<path d="M106.686 36.094C108.145 37.4787 109.156 39.048 109.972 40.8629Z" fill="black"/>
<path d="M105.142 40.5437C106.551 42.2005 107.528 44.078 108.317 46.2494Z" fill="black"/>
<path d="M103.928 47.1011C105.289 48.4858 106.232 50.0551 106.993 51.87Z" fill="black"/>
<path d="M100.178 48.9746C101.44 50.3594 102.316 51.9286 103.022 53.7435Z" fill="black"/>
<path d="M96.3171 56.469C97.7754 58.1258 98.7865 60.0033 99.6027 62.1747Z" fill="black"/>
<path d="M74.917 68.7642C76.1794 70.1489 77.0547 71.7182 77.7613 73.5331Z" fill="black"/>
<path d="M91.353 58.5767C92.6644 59.9274 93.5737 61.4582 94.3076 63.2285Z" fill="black"/>
<path d="M71.9817 72.1413C69.708 71.9982 66.2797 71.4851 66.6867 71.3489C67.1259 71.202 72.2128 69.051 73.526 68.4569C80.7808 65.1751 86.6685 61.8213 90.5328 58.7695C92.0438 57.5762 94.6634 54.8761 96.132 52.9984C99.0463 49.2721 102.739 43.4918 105.765 37.918L106.697 36.2029L108.27 38.4887C109.135 39.7459 109.868 40.7478 109.899 40.7152C109.977 40.6318 109.224 39.1991 108.661 38.3612C108.401 37.9748 107.877 37.2985 107.496 36.8583L106.803 36.0579L107.096 35.4531C107.257 35.1205 107.878 33.86 108.475 32.6521L109.561 30.4558L109.742 31.5396C110.409 35.5543 110.354 39.9205 109.586 43.9234C109.137 46.2607 108.153 49.4489 107.367 51.1139L107.04 51.8055L106.501 50.7224C106.204 50.1266 105.74 49.3148 105.468 48.9183C104.857 48.0269 103.932 46.954 104.015 47.232C104.048 47.3451 104.722 48.44 105.513 49.665C106.303 50.8901 106.95 51.9232 106.95 51.9608C106.95 52.1413 105.758 54.0899 104.846 55.3989C103.534 57.2844 102.469 58.6143 100.838 60.4056L99.5245 61.8484L99.16 60.9709C98.7638 60.0172 97.9569 58.5432 97.4239 57.7994C96.911 57.0837 96.3603 56.44 96.3603 56.5562C96.3603 56.6134 97.0304 57.8219 97.8495 59.2417C98.6685 60.6616 99.3387 61.8521 99.3387 61.8874C99.3387 62.1232 96.7522 64.3424 95.0366 65.5786C93.8158 66.4583 91.8748 67.6942 91.7141 67.6942C91.6714 67.6942 91.3578 67.0788 91.017 66.3266C90.6763 65.5744 90.129 64.5337 89.8007 64.0139C89.1342 62.9586 88.3076 61.8693 88.3076 62.0464C88.3076 62.11 89.0056 63.413 89.8587 64.9421C90.7118 66.4711 91.3872 67.7848 91.3595 67.8613C91.3121 67.9926 88.3501 69.4512 88.1332 69.4501C88.0774 69.4499 87.8361 69.0449 87.5968 68.5503C86.831 66.9668 85.8084 65.429 84.4655 63.8411C83.926 63.2033 84.3696 64.0216 86.0468 66.7583C86.9869 68.2923 87.7561 69.5762 87.7561 69.6115C87.7561 69.6913 85.0116 70.6305 83.9075 70.9285C83.1115 71.1434 83.0896 71.1434 82.9698 70.9296C82.2788 69.6956 81.2291 68.1664 80.5479 67.4015C80.0891 66.8862 79.7121 66.5174 79.7102 66.5818C79.7083 66.6462 80.3967 67.7001 81.24 68.9237C82.2021 70.3198 82.7253 71.175 82.6447 71.2196C82.4392 71.3331 80.7488 71.653 79.3725 71.8387C77.0336 72.1544 77.207 72.1566 77.0588 71.809C76.7258 71.0276 74.96 68.5123 74.96 68.8192C74.96 68.8798 75.3797 69.6375 75.8926 70.503C76.4056 71.3684 76.8151 72.0853 76.8027 72.096C76.7026 72.1827 73.1663 72.2159 71.9817 72.1413ZM93.9198 62.2784C93.6683 61.7471 93.2765 61.0214 93.0491 60.6658C92.4925 59.7952 91.4935 58.5355 91.4208 58.6126C91.3885 58.6468 91.6002 59.0575 91.8911 59.5252C92.871 61.1007 94.2745 63.2445 94.326 63.2445C94.3541 63.2445 94.1713 62.8097 93.9198 62.2784ZM102.806 53.0863C102.233 51.7108 101.418 50.3606 100.49 49.2513C100.015 48.6839 100.256 49.209 101.182 50.7632C102.708 53.3238 102.977 53.7596 103.032 53.7596C103.062 53.7596 102.96 53.4566 102.806 53.0863ZM108.309 46.0604C108.06 45.315 107.094 43.3078 106.591 42.4932C105.945 41.4451 105.185 40.434 105.185 40.6213C105.185 40.7157 107.544 45.0388 108.121 46.0019C108.309 46.3162 108.404 46.3457 108.309 46.0604Z" fill="#CCCCCC" stroke="black" stroke-width="0.0449427" stroke-linecap="round" stroke-linejoin="round" stroke-dasharray="0.27 0.09"/>
<defs>
<linearGradient id="paint0_linear_229_70" x1="118.036" y1="162.895" x2="137.229" y2="180.99" gradientUnits="userSpaceOnUse">
<stop stop-color="#917C6F"/>
<stop offset="1" stop-opacity="0"/>
</linearGradient>
</defs>
</svg>
