<svg width="226" height="272" viewBox="0 0 226 272" fill="none" xmlns="http://www.w3.org/2000/svg">
<g filter="url(#filter0_d_229_42)">
<rect x="9" y="5" width="216.645" height="263.913" fill="#A1DE93"/>
</g>
<path d="M168.904 215.127L168.427 214.675L66.0713 215.892L67.5441 221.222C67.5441 221.222 68.2762 222.858 69.4495 223.79C70.6228 224.723 73.5528 225.171 73.5528 225.171H157.449C157.449 225.171 162.223 223.963 164.177 222.41C166.132 220.856 167.809 219.087 167.809 219.087L168.904 215.127Z" fill="#17280B" stroke="black" stroke-width="0.999999"/>
<path d="M40.6411 123.877L66.0712 215.893L168.427 214.675L168.904 215.127L194.13 123.857L193.836 124.12L40.6411 123.877Z" fill="#2D5016" stroke="black" stroke-width="0.999999"/>
<path d="M40.6413 123.876L193.836 124.12L194.13 123.857L196.632 114.805C196.632 114.805 196.47 111.653 195.039 109.624C193.608 107.595 192.08 107.035 192.08 107.035H42.0113C42.0113 107.035 40.879 108.102 39.5624 109.969C38.2458 111.835 38.0001 114.322 38.0001 114.322L40.6413 123.876Z" fill="#17280B" stroke="black" stroke-width="0.999999"/>
<path d="M103.424 49.9098C95.1598 50.763 74.9396 55.203 72.3835 58.7897C69.8275 62.3764 66.4428 110.359 66.4428 110.359L63.0944 113.775L66.8527 121.63L70.3907 113.969L67.4541 110.67C67.4541 110.67 72.5999 64.2225 76.1141 61.366C79.6284 58.5096 98.6715 54.6368 104.04 54.0498C109.409 53.4628 128.202 53.5623 132.187 54.1458C136.172 54.7293 153.35 55.4672 158.946 61.2613C164.541 67.0554 168.238 110.581 168.238 110.581L165.447 114.217L168.954 122.097L172.762 114.072L169.716 110.702C169.716 110.702 168.932 66.632 162.087 58.9551C155.242 51.2783 135.668 50.9171 132.742 49.6982C129.816 48.4792 111.687 49.0566 103.424 49.9098Z" fill="#917C6F"/>
<path fill-rule="evenodd" clip-rule="evenodd" d="M59.9651 131.594C59.9651 134.558 57.6622 136.962 54.8234 136.962C54.0056 136.962 53.2348 136.766 52.5393 136.403C51.853 136.756 51.0728 136.962 50.2645 136.962C47.4256 136.962 45.1227 134.558 45.1227 131.594C45.1227 128.63 47.4256 126.226 50.2644 126.226C51.0822 126.226 51.853 126.422 52.5391 126.776C53.2254 126.422 54.0056 126.226 54.8234 126.226C57.6622 126.226 59.9651 128.63 59.9651 131.594ZM58.95 131.594C58.95 129.219 57.0981 127.286 54.8234 127.286C54.391 127.286 53.9681 127.355 53.5826 127.482C54.3722 128.169 54.9457 129.092 55.2275 130.152H54.1654C53.867 129.267 53.2991 128.508 52.5487 127.993C51.806 128.503 51.242 129.259 50.9413 130.152H49.8791C50.1573 129.106 50.7305 128.173 51.524 127.472C51.119 127.342 50.6976 127.276 50.2738 127.276C47.9991 127.276 46.1473 129.209 46.1473 131.584C46.1473 133.959 47.9991 135.893 50.2738 135.893C50.7062 135.893 51.1197 135.824 51.5052 135.696C50.4807 134.803 49.8133 133.488 49.7099 132.016H52.1538V133.066L50.96 133.086C51.2702 133.949 51.8249 134.676 52.5487 135.176C53.2724 134.676 53.827 133.949 54.1372 133.086L52.9434 133.066V132.016H55.3874C55.2746 133.488 54.5979 134.793 53.5732 135.686C53.9681 135.814 54.391 135.893 54.8234 135.893C57.1075 135.902 58.95 133.979 58.95 131.594Z" fill="#447821"/>
<path fill-rule="evenodd" clip-rule="evenodd" d="M76.5239 131.724C76.5239 134.688 74.2209 137.092 71.3821 137.092C70.5643 137.092 69.7936 136.896 69.098 136.533C68.4117 136.886 67.6315 137.092 66.8233 137.092C63.9844 137.092 61.6814 134.688 61.6814 131.724C61.6814 128.76 63.9844 126.356 66.8231 126.356C67.6409 126.356 68.4117 126.552 69.0978 126.906C69.7841 126.552 70.5643 126.356 71.3821 126.356C74.2209 126.356 76.5239 128.76 76.5239 131.724ZM75.5087 131.724C75.5087 129.349 73.6568 127.416 71.3821 127.416C70.9497 127.416 70.5268 127.485 70.1413 127.612C70.9309 128.299 71.5044 129.222 71.7863 130.281H70.7241C70.4257 129.397 69.8579 128.638 69.1074 128.122C68.3648 128.633 67.8007 129.388 67.5 130.281H66.4378C66.716 129.236 67.2892 128.303 68.0827 127.602C67.6778 127.472 67.2563 127.406 66.8325 127.406C64.5578 127.406 62.7061 129.339 62.7061 131.714C62.7061 134.089 64.5578 136.022 66.8325 136.022C67.2649 136.022 67.6785 135.954 68.0639 135.826C67.0394 134.933 66.3721 133.618 66.2686 132.146H68.7125V133.196L67.5187 133.216C67.829 134.079 68.3836 134.806 69.1074 135.306C69.8311 134.806 70.3857 134.079 70.696 133.216L69.5021 133.196V132.146H71.9462C71.8333 133.618 71.1566 134.923 70.1319 135.816C70.5268 135.944 70.9497 136.022 71.3821 136.022C73.6663 136.032 75.5087 134.109 75.5087 131.724Z" fill="#447821"/>
<path fill-rule="evenodd" clip-rule="evenodd" d="M92.4576 131.897C92.4576 134.86 90.1546 137.265 87.3158 137.265C86.498 137.265 85.7273 137.069 85.0317 136.705C84.3454 137.059 83.5652 137.265 82.757 137.265C79.9181 137.265 77.6151 134.86 77.6151 131.897C77.6151 128.933 79.9181 126.529 82.7568 126.529C83.5747 126.529 84.3454 126.725 85.0316 127.078C85.7179 126.725 86.498 126.529 87.3158 126.529C90.1546 126.529 92.4576 128.933 92.4576 131.897ZM91.4425 131.897C91.4425 129.522 89.5906 127.589 87.3158 127.589C86.8835 127.589 86.4605 127.657 86.0751 127.785C86.8646 128.472 87.4381 129.394 87.72 130.454H86.6578C86.3594 129.569 85.7916 128.811 85.0411 128.295C84.2985 128.805 83.7344 129.561 83.4337 130.454H82.3715C82.6497 129.409 83.2229 128.475 84.0165 127.775C83.6115 127.645 83.19 127.578 82.7663 127.579C80.4915 127.579 78.6398 129.512 78.6398 131.887C78.6398 134.262 80.4915 136.195 82.7663 136.195C83.1986 136.195 83.6122 136.126 83.9976 135.999C82.9731 135.106 82.3058 133.791 82.2024 132.319H84.6463V133.369L83.4524 133.388C83.7627 134.252 84.3173 134.978 85.0411 135.479C85.7648 134.978 86.3194 134.252 86.6297 133.388L85.4358 133.369V132.319H87.8799C87.767 133.791 87.0903 135.096 86.0656 135.989C86.4605 136.117 86.8835 136.195 87.3158 136.195C89.6 136.205 91.4425 134.281 91.4425 131.897Z" fill="#447821"/>
<path fill-rule="evenodd" clip-rule="evenodd" d="M110.342 131.724C110.342 134.688 108.039 137.092 105.201 137.092C104.383 137.092 103.612 136.896 102.916 136.533C102.23 136.886 101.45 137.092 100.642 137.092C97.8028 137.092 95.4999 134.688 95.4999 131.724C95.4999 128.76 97.8028 126.356 100.642 126.356C101.459 126.356 102.23 126.552 102.916 126.906C103.603 126.552 104.383 126.356 105.201 126.356C108.039 126.356 110.342 128.76 110.342 131.724ZM109.327 131.724C109.327 129.349 107.475 127.416 105.201 127.416C104.768 127.416 104.345 127.485 103.96 127.612C104.749 128.299 105.323 129.222 105.605 130.281H104.543C104.244 129.397 103.676 128.638 102.926 128.122C102.183 128.633 101.619 129.388 101.318 130.281H100.256C100.534 129.236 101.108 128.303 101.901 127.602C101.496 127.472 101.075 127.406 100.651 127.406C98.3763 127.406 96.5245 129.339 96.5245 131.714C96.5245 134.089 98.3763 136.022 100.651 136.022C101.083 136.022 101.497 135.954 101.882 135.826C100.858 134.933 100.191 133.618 100.087 132.146H102.531V133.196L101.337 133.216C101.647 134.079 102.202 134.806 102.926 135.306C103.65 134.806 104.204 134.079 104.514 133.216L103.321 133.196V132.146H105.765C105.652 133.618 104.975 134.923 103.95 135.816C104.345 135.944 104.768 136.022 105.201 136.022C107.485 136.032 109.327 134.109 109.327 131.724Z" fill="#447821"/>
<path fill-rule="evenodd" clip-rule="evenodd" d="M127.414 131.897C127.414 134.86 125.111 137.265 122.272 137.265C121.455 137.265 120.684 137.069 119.988 136.705C119.302 137.059 118.522 137.265 117.714 137.265C114.875 137.265 112.572 134.86 112.572 131.897C112.572 128.933 114.875 126.529 117.713 126.529C118.531 126.529 119.302 126.725 119.988 127.078C120.674 126.725 121.455 126.529 122.272 126.529C125.111 126.529 127.414 128.933 127.414 131.897ZM126.399 131.897C126.399 129.522 124.547 127.589 122.272 127.589C121.84 127.589 121.417 127.657 121.032 127.785C121.821 128.472 122.395 129.394 122.677 130.454H121.614C121.316 129.569 120.748 128.811 119.998 128.295C119.255 128.805 118.691 129.561 118.39 130.454H117.328C117.606 129.409 118.179 128.475 118.973 127.775C118.568 127.645 118.147 127.578 117.723 127.579C115.448 127.579 113.596 129.512 113.596 131.887C113.596 134.262 115.448 136.195 117.723 136.195C118.155 136.195 118.569 136.126 118.954 135.999C117.93 135.106 117.262 133.791 117.159 132.319H119.603V133.369L118.409 133.388C118.719 134.252 119.274 134.978 119.998 135.479C120.721 134.978 121.276 134.252 121.586 133.388L120.392 133.369V132.319H122.836C122.724 133.791 122.047 135.096 121.022 135.989C121.417 136.117 121.84 136.195 122.272 136.195C124.557 136.205 126.399 134.281 126.399 131.897Z" fill="#447821"/>
<path fill-rule="evenodd" clip-rule="evenodd" d="M144.648 131.897C144.648 134.86 142.345 137.265 139.507 137.265C138.689 137.265 137.918 137.069 137.222 136.705C136.536 137.059 135.756 137.265 134.948 137.265C132.109 137.265 129.806 134.86 129.806 131.897C129.806 128.933 132.109 126.529 134.948 126.529C135.765 126.529 136.536 126.725 137.222 127.078C137.909 126.725 138.689 126.529 139.507 126.529C142.345 126.529 144.648 128.933 144.648 131.897ZM143.633 131.897C143.633 129.522 141.781 127.589 139.507 127.589C139.074 127.589 138.651 127.657 138.266 127.785C139.055 128.472 139.629 129.394 139.911 130.454H138.849C138.55 129.569 137.982 128.811 137.232 128.295C136.489 128.805 135.925 129.561 135.625 130.454H134.562C134.84 129.409 135.414 128.475 136.207 127.775C135.802 127.645 135.381 127.578 134.957 127.579C132.682 127.579 130.831 129.512 130.831 131.887C130.831 134.262 132.682 136.195 134.957 136.195C135.389 136.195 135.803 136.126 136.188 135.999C135.164 135.106 134.497 133.791 134.393 132.319H136.837V133.369L135.643 133.388C135.953 134.252 136.508 134.978 137.232 135.479C137.956 134.978 138.51 134.252 138.82 133.388L137.627 133.369V132.319H140.071C139.958 133.791 139.281 135.096 138.256 135.989C138.651 136.117 139.074 136.195 139.507 136.195C141.791 136.205 143.633 134.281 143.633 131.897Z" fill="#447821"/>
<path fill-rule="evenodd" clip-rule="evenodd" d="M161.883 132.242C161.883 135.206 159.58 137.61 156.741 137.61C155.923 137.61 155.153 137.414 154.457 137.051C153.771 137.404 152.991 137.61 152.182 137.61C149.343 137.61 147.04 135.206 147.04 132.242C147.04 129.278 149.343 126.874 152.182 126.874C153 126.874 153.771 127.07 154.457 127.423C155.143 127.07 155.923 126.874 156.741 126.874C159.58 126.874 161.883 129.278 161.883 132.242ZM160.868 132.242C160.868 129.867 159.016 127.934 156.741 127.934C156.309 127.934 155.886 128.002 155.5 128.13C156.29 128.817 156.863 129.739 157.145 130.799H156.083C155.785 129.914 155.217 129.156 154.466 128.64C153.724 129.15 153.16 129.906 152.859 130.799H151.797C152.075 129.754 152.648 128.82 153.442 128.12C153.037 127.99 152.615 127.924 152.192 127.924C149.917 127.924 148.065 129.857 148.065 132.232C148.065 134.607 149.917 136.54 152.192 136.54C152.624 136.54 153.037 136.472 153.423 136.344C152.398 135.451 151.731 134.136 151.628 132.664H154.072V133.714L152.878 133.734C153.188 134.597 153.743 135.324 154.466 135.824C155.19 135.323 155.745 134.597 156.055 133.734L154.861 133.714V132.664H157.305C157.192 134.136 156.516 135.441 155.491 136.334C155.886 136.462 156.309 136.54 156.741 136.54C159.025 136.55 160.868 134.627 160.868 132.242Z" fill="#447821"/>
<path fill-rule="evenodd" clip-rule="evenodd" d="M179.28 132.587C179.28 135.551 176.977 137.955 174.138 137.955C173.32 137.955 172.55 137.759 171.854 137.396C171.168 137.749 170.388 137.955 169.579 137.955C166.74 137.955 164.437 135.551 164.437 132.587C164.437 129.623 166.74 127.219 169.579 127.219C170.397 127.219 171.168 127.415 171.854 127.769C172.54 127.415 173.32 127.219 174.138 127.219C176.977 127.219 179.28 129.623 179.28 132.587ZM178.265 132.587C178.265 130.212 176.413 128.279 174.138 128.279C173.706 128.279 173.283 128.348 172.897 128.475C173.687 129.162 174.26 130.085 174.542 131.145H173.48C173.182 130.26 172.614 129.501 171.863 128.985C171.121 129.496 170.557 130.252 170.256 131.145H169.194C169.472 130.099 170.045 129.166 170.839 128.465C170.434 128.335 170.012 128.269 169.589 128.269C167.314 128.269 165.462 130.202 165.462 132.577C165.462 134.952 167.314 136.886 169.589 136.886C170.021 136.886 170.434 136.817 170.82 136.689C169.795 135.796 169.128 134.481 169.025 133.009H171.469V134.059L170.275 134.079C170.585 134.942 171.14 135.669 171.863 136.169C172.587 135.669 173.142 134.942 173.452 134.079L172.258 134.059V133.009H174.702C174.589 134.481 173.913 135.786 172.888 136.679C173.283 136.807 173.706 136.886 174.138 136.886C176.422 136.895 178.265 134.972 178.265 132.587Z" fill="#447821"/>
<path fill-rule="evenodd" clip-rule="evenodd" d="M190.498 132.819C190.516 135.735 189.16 138.109 187.472 138.119C186.986 138.122 186.526 137.932 186.111 137.577C185.705 137.927 185.242 138.133 184.761 138.136C183.073 138.146 181.689 135.788 181.672 132.872C181.654 129.956 183.01 127.582 184.698 127.572C185.184 127.569 185.644 127.76 186.054 128.105C186.46 127.755 186.923 127.559 187.409 127.556C189.097 127.546 190.481 129.903 190.498 132.819ZM189.895 132.823C189.881 130.486 188.768 128.591 187.415 128.599C187.158 128.6 186.907 128.669 186.679 128.796C187.152 129.469 187.499 130.375 187.672 131.417L187.041 131.421C186.858 130.551 186.516 129.807 186.067 129.302C185.628 129.807 185.297 130.552 185.124 131.432L184.492 131.436C184.651 130.407 184.986 129.486 185.454 128.794C185.213 128.667 184.962 128.604 184.71 128.605C183.357 128.614 182.267 130.522 182.281 132.859C182.295 135.196 183.408 137.091 184.76 137.083C185.018 137.082 185.263 137.013 185.492 136.886C184.877 136.011 184.472 134.719 184.402 133.271L185.856 133.262L185.862 134.296L185.152 134.319C185.342 135.168 185.676 135.88 186.109 136.37C186.536 135.875 186.862 135.159 187.041 134.308L186.331 134.293L186.325 133.26L187.779 133.251C187.72 134.7 187.325 135.986 186.721 136.869C186.957 136.993 187.209 137.068 187.466 137.067C188.824 137.068 189.909 135.169 189.895 132.823Z" fill="#447821"/>
<path d="M135.541 113.5L135.463 113.526C135.158 112.863 134.724 112.336 134.158 111.944C133.602 111.552 132.902 111.356 132.059 111.356C131.59 111.356 131.142 111.456 130.716 111.656C130.29 111.848 129.916 112.122 129.594 112.48C129.281 112.828 129.029 113.251 128.838 113.748C128.647 114.245 128.551 114.793 128.551 115.395C128.551 115.996 128.647 116.545 128.838 117.042C129.029 117.538 129.282 117.966 129.594 118.323C129.916 118.671 130.29 118.942 130.716 119.133C131.142 119.325 131.59 119.421 132.059 119.421C132.894 119.421 133.572 119.29 134.093 119.029C134.624 118.759 135.071 118.349 135.437 117.8L135.515 117.826L135.489 118.663C135.289 118.872 135.058 119.059 134.798 119.225C134.537 119.382 134.254 119.517 133.95 119.63C133.654 119.735 133.346 119.813 133.024 119.865C132.703 119.926 132.381 119.957 132.059 119.957C131.39 119.957 130.751 119.848 130.142 119.63C129.534 119.412 128.999 119.107 128.538 118.715C128.077 118.314 127.712 117.835 127.443 117.277C127.173 116.711 127.039 116.083 127.039 115.395C127.039 114.706 127.173 114.083 127.443 113.525C127.712 112.959 128.077 112.475 128.538 112.075C128.999 111.674 129.534 111.369 130.142 111.159C130.751 110.942 131.39 110.833 132.059 110.833C132.381 110.833 132.703 110.859 133.024 110.911C133.346 110.963 133.654 111.046 133.95 111.159C134.254 111.264 134.537 111.399 134.798 111.565C135.058 111.722 135.289 111.905 135.489 112.114L135.541 113.5ZM106.805 115.996C106.709 116.04 106.618 116.096 106.531 116.166C106.444 116.236 106.401 116.332 106.401 116.454V118.062C105.983 118.663 105.448 119.129 104.796 119.461C104.145 119.792 103.423 119.957 102.632 119.957C101.963 119.957 101.323 119.848 100.715 119.63C100.106 119.412 99.5717 119.107 99.1109 118.715C98.6502 118.314 98.285 117.835 98.0155 117.278C97.7461 116.711 97.6113 116.083 97.6113 115.395C97.6113 114.707 97.7462 114.084 98.0159 113.526C98.2851 112.959 98.6502 112.476 99.1109 112.075C99.5717 111.674 100.106 111.369 100.715 111.16C101.323 110.942 101.963 110.833 102.632 110.833C102.954 110.833 103.275 110.859 103.597 110.911C103.919 110.964 104.227 111.046 104.522 111.16C104.827 111.264 105.11 111.399 105.37 111.565C105.631 111.722 105.861 111.905 106.061 112.114L106.114 113.5L106.035 113.526C105.731 112.864 105.297 112.336 104.732 111.944C104.175 111.552 103.475 111.356 102.632 111.356C102.163 111.356 101.715 111.456 101.289 111.656C100.863 111.848 100.489 112.123 100.168 112.48C99.8545 112.829 99.6022 113.251 99.4109 113.748C99.2196 114.245 99.124 114.794 99.124 115.395C99.124 115.987 99.2154 116.532 99.3982 117.029C99.5893 117.526 99.8413 117.953 100.154 118.31C100.476 118.658 100.85 118.933 101.276 119.133C101.702 119.325 102.154 119.421 102.632 119.421C103.536 119.421 104.31 119.247 104.953 118.898V116.454C104.953 116.332 104.905 116.236 104.81 116.166C104.723 116.096 104.636 116.04 104.549 115.996L104.561 115.931C104.604 115.939 104.683 115.947 104.796 115.957C104.909 115.965 105.026 115.974 105.148 115.983H106.269C106.374 115.975 106.474 115.966 106.569 115.957C106.665 115.949 106.739 115.94 106.791 115.931L106.805 115.996ZM116.25 111.107C116.163 111.151 116.076 111.207 115.99 111.277C115.903 111.347 115.855 111.478 115.846 111.67C115.838 111.879 115.829 112.144 115.82 112.467C115.82 112.781 115.816 113.138 115.808 113.539C115.808 113.94 115.804 114.375 115.796 114.846V116.31C115.788 116.876 115.719 117.36 115.587 117.761C115.457 118.162 115.283 118.497 115.066 118.767C114.857 119.038 114.623 119.251 114.362 119.408C114.11 119.565 113.858 119.683 113.605 119.761C113.362 119.848 113.132 119.9 112.914 119.918C112.697 119.944 112.527 119.957 112.406 119.957C111.91 119.957 111.432 119.892 110.971 119.761C110.51 119.639 110.106 119.439 109.758 119.16C109.411 118.881 109.133 118.519 108.924 118.075C108.715 117.63 108.611 117.09 108.611 116.454V113.617C108.611 113.199 108.607 112.824 108.599 112.493C108.599 112.153 108.595 111.879 108.587 111.67C108.579 111.478 108.531 111.347 108.444 111.278C108.357 111.208 108.27 111.151 108.183 111.107L108.195 111.042C108.238 111.05 108.308 111.059 108.404 111.068C108.508 111.076 108.612 111.085 108.716 111.094C108.83 111.094 108.938 111.098 109.042 111.106H109.512C109.616 111.098 109.725 111.094 109.838 111.094C109.951 111.086 110.055 111.077 110.151 111.068C110.255 111.06 110.329 111.051 110.372 111.042L110.384 111.107C110.289 111.151 110.198 111.207 110.111 111.277C110.032 111.347 109.989 111.478 109.98 111.67C109.972 111.879 109.964 112.153 109.954 112.493V116.454C109.954 117.404 110.176 118.105 110.619 118.558C111.063 119.012 111.719 119.238 112.588 119.238C112.84 119.238 113.127 119.208 113.449 119.146C113.771 119.077 114.071 118.937 114.349 118.728C114.636 118.519 114.875 118.223 115.066 117.839C115.266 117.456 115.366 116.946 115.366 116.31C115.366 115.622 115.362 115.033 115.354 114.545C115.354 114.049 115.35 113.626 115.342 113.277C115.342 112.92 115.338 112.615 115.33 112.362C115.322 112.11 115.314 111.879 115.304 111.67C115.296 111.478 115.248 111.347 115.161 111.277C115.074 111.208 114.987 111.151 114.9 111.107L114.912 111.042C115.008 111.059 115.116 111.077 115.238 111.095C115.36 111.102 115.473 111.106 115.577 111.106C115.673 111.106 115.781 111.102 115.903 111.095C116.033 111.077 116.146 111.06 116.242 111.042L116.25 111.107ZM125.713 113.5L125.635 113.526C125.33 112.863 124.895 112.336 124.33 111.944C123.774 111.552 123.074 111.356 122.231 111.356C121.762 111.356 121.314 111.456 120.888 111.656C120.462 111.848 120.088 112.122 119.766 112.48C119.453 112.828 119.201 113.251 119.01 113.748C118.819 114.245 118.723 114.793 118.723 115.395C118.723 115.996 118.819 116.545 119.01 117.042C119.201 117.538 119.453 117.966 119.766 118.323C120.088 118.671 120.462 118.942 120.888 119.133C121.314 119.325 121.762 119.421 122.231 119.421C123.066 119.421 123.744 119.29 124.265 119.029C124.796 118.759 125.243 118.349 125.609 117.8L125.687 117.826L125.661 118.663C125.461 118.872 125.23 119.059 124.969 119.225C124.709 119.382 124.426 119.517 124.122 119.63C123.826 119.735 123.518 119.813 123.196 119.865C122.874 119.926 122.553 119.957 122.231 119.957C121.561 119.957 120.922 119.848 120.314 119.63C119.706 119.412 119.171 119.107 118.71 118.715C118.249 118.314 117.884 117.835 117.615 117.277C117.345 116.711 117.21 116.083 117.21 115.395C117.21 114.706 117.345 114.083 117.615 113.525C117.884 112.959 118.25 112.475 118.71 112.075C119.171 111.674 119.706 111.369 120.314 111.159C120.923 110.942 121.562 110.833 122.231 110.833C122.553 110.833 122.874 110.859 123.196 110.911C123.518 110.963 123.826 111.046 124.122 111.159C124.426 111.264 124.709 111.399 124.969 111.565C125.23 111.722 125.461 111.905 125.661 112.114L125.713 113.5ZM139.471 119.734C139.428 119.727 139.354 119.718 139.25 119.709C139.154 119.709 139.05 119.705 138.937 119.697C138.824 119.697 138.715 119.693 138.611 119.685H137.829C137.724 119.693 137.62 119.701 137.515 119.711C137.42 119.719 137.346 119.727 137.294 119.737L137.282 119.685C137.369 119.641 137.455 119.584 137.542 119.514C137.629 119.445 137.677 119.314 137.686 119.122C137.694 118.913 137.698 118.695 137.698 118.469C137.706 118.242 137.71 117.985 137.71 117.698V113.083C137.71 112.796 137.706 112.543 137.698 112.325C137.698 112.098 137.694 111.881 137.686 111.672C137.678 111.48 137.63 111.349 137.543 111.279C137.456 111.201 137.369 111.14 137.282 111.096L137.294 111.044C137.346 111.061 137.42 111.074 137.515 111.083C137.62 111.083 137.724 111.087 137.828 111.095C137.941 111.103 138.05 111.107 138.154 111.107H138.611C138.715 111.099 138.823 111.095 138.936 111.095C139.05 111.087 139.154 111.079 139.25 111.069C139.354 111.061 139.428 111.052 139.471 111.043L139.483 111.096C139.388 111.139 139.296 111.2 139.209 111.278C139.131 111.348 139.088 111.479 139.079 111.67C139.071 111.88 139.062 112.098 139.053 112.324V118.468C139.061 118.694 139.07 118.912 139.079 119.121C139.087 119.313 139.13 119.444 139.209 119.513C139.296 119.583 139.387 119.64 139.483 119.684L139.471 119.734Z" fill="#D4FF2A"/>
<path fill-rule="evenodd" clip-rule="evenodd" d="M82.4584 209.131C82.4584 212.095 80.1555 214.5 77.3167 214.5C76.4989 214.5 75.7281 214.303 75.0326 213.94C74.3463 214.294 73.5661 214.5 72.7578 214.5C69.9189 214.5 67.616 212.095 67.616 209.131C67.616 206.168 69.9189 203.763 72.7577 203.763C73.5755 203.763 74.3463 203.96 75.0324 204.313C75.7187 203.96 76.4989 203.763 77.3167 203.763C80.1555 203.763 82.4584 206.168 82.4584 209.131ZM81.4433 209.131C81.4433 206.757 79.5914 204.823 77.3167 204.823C76.8843 204.823 76.4614 204.892 76.0759 205.02C76.8655 205.707 77.4389 206.629 77.7208 207.689H76.6586C76.3603 206.804 75.7924 206.046 75.042 205.53C74.2993 206.04 73.7353 206.796 73.4346 207.689H72.3724C72.6506 206.644 73.2237 205.71 74.0173 205.01C73.6123 204.879 73.1909 204.813 72.7671 204.814C70.4924 204.814 68.6406 206.747 68.6406 209.122C68.6406 211.497 70.4924 213.43 72.7671 213.43C73.1995 213.43 73.613 213.361 73.9985 213.234C72.974 212.341 72.3066 211.026 72.2032 209.554H74.6471V210.604L73.4533 210.623C73.7635 211.487 74.3182 212.213 75.042 212.714C75.7656 212.213 76.3203 211.487 76.6305 210.623L75.4367 210.604V209.554H77.8807C77.7679 211.026 77.0912 212.331 76.0665 213.224C76.4614 213.351 76.8843 213.43 77.3167 213.43C79.6008 213.44 81.4433 211.516 81.4433 209.131Z" fill="#447821"/>
<path fill-rule="evenodd" clip-rule="evenodd" d="M100.343 208.959C100.343 211.923 98.0401 214.327 95.2013 214.327C94.3835 214.327 93.6128 214.131 92.9172 213.768C92.2309 214.121 91.4507 214.327 90.6425 214.327C87.8036 214.327 85.5006 211.923 85.5006 208.959C85.5006 205.995 87.8036 203.591 90.6423 203.591C91.4602 203.591 92.2309 203.787 92.9171 204.14C93.6034 203.787 94.3835 203.591 95.2013 203.591C98.0401 203.591 100.343 205.995 100.343 208.959ZM99.328 208.959C99.328 206.584 97.4761 204.651 95.2013 204.651C94.769 204.651 94.346 204.719 93.9606 204.847C94.7501 205.534 95.3236 206.456 95.6055 207.516H94.5433C94.2449 206.632 93.6771 205.873 92.9266 205.357C92.184 205.868 91.6199 206.623 91.3192 207.516H90.257C90.5352 206.471 91.1084 205.538 91.9019 204.837C91.497 204.707 91.0755 204.641 90.6518 204.641C88.377 204.641 86.5253 206.574 86.5253 208.949C86.5253 211.324 88.377 213.257 90.6518 213.257C91.0841 213.257 91.4977 213.189 91.8831 213.061C90.8586 212.168 90.1913 210.853 90.0879 209.381H92.5318V210.431L91.3379 210.451C91.6482 211.314 92.2028 212.041 92.9266 212.541C93.6503 212.04 94.2049 211.314 94.5152 210.451L93.3213 210.431V209.381H95.7654C95.6525 210.853 94.9758 212.158 93.9511 213.051C94.346 213.179 94.769 213.257 95.2013 213.257C97.4855 213.267 99.328 211.344 99.328 208.959Z" fill="#447821"/>
<path fill-rule="evenodd" clip-rule="evenodd" d="M117.415 209.131C117.415 212.095 115.112 214.5 112.273 214.5C111.455 214.5 110.685 214.303 109.989 213.94C109.303 214.294 108.523 214.5 107.714 214.5C104.875 214.5 102.572 212.095 102.572 209.131C102.572 206.168 104.875 203.763 107.714 203.763C108.532 203.763 109.303 203.96 109.989 204.313C110.675 203.96 111.455 203.763 112.273 203.763C115.112 203.763 117.415 206.168 117.415 209.131ZM116.4 209.131C116.4 206.757 114.548 204.823 112.273 204.823C111.841 204.823 111.418 204.892 111.032 205.02C111.822 205.707 112.395 206.629 112.677 207.689H111.615C111.317 206.804 110.749 206.046 109.998 205.53C109.256 206.04 108.692 206.796 108.391 207.689H107.329C107.607 206.644 108.18 205.71 108.974 205.01C108.569 204.879 108.147 204.813 107.724 204.814C105.449 204.814 103.597 206.747 103.597 209.122C103.597 211.497 105.449 213.43 107.724 213.43C108.156 213.43 108.569 213.361 108.955 213.234C107.93 212.341 107.263 211.026 107.16 209.554H109.604V210.604L108.41 210.623C108.72 211.487 109.275 212.213 109.998 212.714C110.722 212.213 111.277 211.487 111.587 210.623L110.393 210.604V209.554H112.837C112.724 211.026 112.048 212.331 111.023 213.224C111.418 213.351 111.841 213.43 112.273 213.43C114.557 213.44 116.4 211.516 116.4 209.131Z" fill="#447821"/>
<path fill-rule="evenodd" clip-rule="evenodd" d="M134.161 209.131C134.161 212.095 131.858 214.5 129.02 214.5C128.202 214.5 127.431 214.303 126.736 213.94C126.049 214.294 125.269 214.5 124.461 214.5C121.622 214.5 119.319 212.095 119.319 209.131C119.319 206.168 121.622 203.763 124.461 203.763C125.279 203.763 126.049 203.96 126.735 204.313C127.422 203.96 128.202 203.763 129.02 203.763C131.858 203.763 134.161 206.168 134.161 209.131ZM133.146 209.131C133.146 206.757 131.294 204.823 129.02 204.823C128.587 204.823 128.164 204.892 127.779 205.02C128.568 205.707 129.142 206.629 129.424 207.689H128.362C128.063 206.804 127.495 206.046 126.745 205.53C126.002 206.04 125.438 206.796 125.138 207.689H124.075C124.354 206.644 124.927 205.71 125.72 205.01C125.315 204.879 124.894 204.813 124.47 204.814C122.195 204.814 120.344 206.747 120.344 209.122C120.344 211.497 122.195 213.43 124.47 213.43C124.902 213.43 125.316 213.361 125.701 213.234C124.677 212.341 124.01 211.026 123.906 209.554H126.35V210.604L125.156 210.623C125.467 211.487 126.021 212.213 126.745 212.714C127.469 212.213 128.023 211.487 128.334 210.623L127.14 210.604V209.554H129.584C129.471 211.026 128.794 212.331 127.77 213.224C128.164 213.351 128.587 213.43 129.02 213.43C131.304 213.44 133.146 211.516 133.146 209.131Z" fill="#447821"/>
<path fill-rule="evenodd" clip-rule="evenodd" d="M150.908 209.304C150.908 212.268 148.605 214.672 145.766 214.672C144.949 214.672 144.178 214.476 143.482 214.113C142.796 214.466 142.016 214.672 141.208 214.672C138.369 214.672 136.066 212.268 136.066 209.304C136.066 206.34 138.369 203.936 141.207 203.936C142.025 203.936 142.796 204.132 143.482 204.486C144.168 204.132 144.949 203.936 145.766 203.936C148.605 203.936 150.908 206.34 150.908 209.304ZM149.893 209.304C149.893 206.929 148.041 204.996 145.766 204.996C145.334 204.996 144.911 205.065 144.526 205.192C145.315 205.879 145.889 206.802 146.171 207.862H145.108C144.81 206.977 144.242 206.218 143.492 205.703C142.749 206.213 142.185 206.969 141.884 207.862H140.822C141.1 206.816 141.673 205.883 142.467 205.182C142.062 205.052 141.641 204.986 141.217 204.986C138.942 204.986 137.09 206.919 137.09 209.294C137.09 211.669 138.942 213.603 141.217 213.603C141.649 213.603 142.063 213.534 142.448 213.406C141.424 212.513 140.756 211.198 140.653 209.726H143.097V210.776L141.903 210.796C142.213 211.659 142.768 212.386 143.492 212.886C144.215 212.386 144.77 211.659 145.08 210.796L143.886 210.776V209.726H146.33C146.218 211.198 145.541 212.503 144.516 213.396C144.911 213.524 145.334 213.603 145.766 213.603C148.051 213.612 149.893 211.689 149.893 209.304Z" fill="#447821"/>
<path fill-rule="evenodd" clip-rule="evenodd" d="M169.199 209.218C169.199 212.182 166.896 214.586 164.058 214.586C163.24 214.586 162.469 214.39 161.773 214.026C161.087 214.38 160.307 214.586 159.499 214.586C156.66 214.586 154.357 212.182 154.357 209.218C154.357 206.254 156.66 203.85 159.499 203.85C160.316 203.85 161.087 204.046 161.773 204.399C162.46 204.046 163.24 203.85 164.058 203.85C166.896 203.85 169.199 206.254 169.199 209.218ZM168.184 209.218C168.184 206.843 166.332 204.91 164.058 204.91C163.625 204.91 163.202 204.978 162.817 205.106C163.606 205.793 164.18 206.715 164.462 207.775H163.399C163.101 206.89 162.533 206.132 161.783 205.616C161.04 206.126 160.476 206.882 160.175 207.775H159.113C159.391 206.73 159.965 205.796 160.758 205.096C160.353 204.966 159.932 204.9 159.508 204.9C157.233 204.9 155.381 206.833 155.381 209.208C155.381 211.583 157.233 213.516 159.508 213.516C159.94 213.516 160.354 213.448 160.739 213.32C159.715 212.427 159.047 211.112 158.944 209.64H161.388V210.69L160.194 210.709C160.504 211.573 161.059 212.299 161.783 212.8C162.506 212.299 163.061 211.573 163.371 210.709L162.178 210.69V209.64H164.622C164.509 211.112 163.832 212.417 162.807 213.31C163.202 213.438 163.625 213.516 164.058 213.516C166.342 213.526 168.184 211.602 168.184 209.218Z" fill="#447821"/>
<path fill-rule="evenodd" clip-rule="evenodd" d="M149.738 170.076C149.738 182.839 139.82 193.194 127.595 193.194C124.073 193.194 120.753 192.349 117.758 190.785C114.802 192.307 111.443 193.194 107.962 193.194C95.7358 193.194 85.8179 182.839 85.8179 170.076C85.8179 157.312 95.7358 146.958 107.961 146.958C111.483 146.958 114.802 147.803 117.757 149.325C120.713 147.803 124.073 146.958 127.595 146.958C139.82 146.958 149.738 157.312 149.738 170.076ZM145.366 170.076C145.366 159.849 137.391 151.523 127.595 151.523C125.733 151.523 123.911 151.818 122.251 152.368C125.652 155.326 128.121 159.299 129.335 163.864H124.761C123.476 160.053 121.03 156.787 117.799 154.565C114.6 156.763 112.171 160.018 110.876 163.864H106.302C107.5 159.362 109.968 155.342 113.386 152.326C111.642 151.764 109.827 151.479 108.002 151.48C98.2054 151.48 90.2307 159.806 90.2307 170.034C90.2307 180.261 98.2054 188.588 108.002 188.588C109.864 188.588 111.645 188.292 113.305 187.742C108.892 183.896 106.019 178.233 105.573 171.894H116.098V176.415L110.957 176.5C112.293 180.219 114.681 183.347 117.799 185.503C120.915 183.347 123.304 180.219 124.64 176.5L119.498 176.415V171.894H130.024C129.538 178.233 126.624 183.854 122.211 187.7C123.911 188.25 125.733 188.588 127.595 188.588C137.432 188.63 145.366 180.346 145.366 170.076Z" fill="#222B00"/>
<defs>
<filter id="filter0_d_229_42" x="0" y="0" width="225.645" height="271.913" filterUnits="userSpaceOnUse" color-interpolation-filters="sRGB">
<feFlood flood-opacity="0" result="BackgroundImageFix"/>
<feColorMatrix in="SourceAlpha" type="matrix" values="0 0 0 0 0 0 0 0 0 0 0 0 0 0 0 0 0 0 127 0" result="hardAlpha"/>
<feOffset dx="-5" dy="-1"/>
<feGaussianBlur stdDeviation="2"/>
<feComposite in2="hardAlpha" operator="out"/>
<feColorMatrix type="matrix" values="0 0 0 0 0 0 0 0 0 0 0 0 0 0 0 0 0 0 0.25 0"/>
<feBlend mode="normal" in2="BackgroundImageFix" result="effect1_dropShadow_229_42"/>
<feBlend mode="normal" in="SourceGraphic" in2="effect1_dropShadow_229_42" result="shape"/>
</filter>
</defs>
</svg>
