<svg width="202" height="284" viewBox="0 0 202 284" fill="none" xmlns="http://www.w3.org/2000/svg">
<path d="M200.888 189.246C203.204 202.631 201.846 216.536 197.339 229.182C192.877 241.884 185.073 253.11 174.972 261.736C164.897 270.408 152.723 276.717 139.292 280.286C125.853 283.843 111.211 284.709 96.236 282.1C81.2809 279.607 66.1616 273.457 52.8913 265.149C39.7662 256.733 27.7802 246.775 19.9635 235.95C16.0381 230.533 12.9967 224.827 11.2206 218.644C9.38577 212.477 9.11349 205.841 10.5838 199.255C11.4802 195.078 13.6588 191.149 16.3356 188.568C19.0376 185.925 22.1207 184.441 24.9571 184.094C30.7339 183.382 34.4246 186.834 36.4983 190.655C38.6514 194.563 39.9753 199.054 42.2838 201.802C44.5126 204.752 47.2146 205.112 47.6417 205.895C47.4575 208.983 48.3539 212.43 50.1722 215.141C51.9276 217.922 54.3196 220.218 56.8333 222.183C61.9358 226.045 67.2068 229.179 72.4598 231.579C82.8698 236.451 93.7119 238.182 102.786 235.421C111.751 232.857 118.928 226.054 119.913 217.537C120.461 213.382 119.661 209.117 117.705 205.498C115.799 201.824 112.326 199.068 108.526 197.589C103.818 195.77 98.8658 195.729 94.6053 195.905L88.5643 196.27L87.186 196.353L82.2385 195.641L79.6537 195.256L76.5493 194.602C74.463 194.142 72.4312 193.731 70.2988 193.191C61.5851 190.82 52.0542 187.313 42.5874 181.415C32.7051 175.262 24.0621 166.824 17.6276 157.662C4.73687 139.141 -1.10241 117.675 0.171041 95.3259C0.824494 84.2287 3.623 72.4898 8.5244 61.799C13.3168 51.2377 19.8984 41.8035 27.5352 33.8098C42.8976 17.8442 62.1507 7.19095 83.7766 2.42441C86.4997 1.8671 89.256 1.40635 92.0168 0.966473C94.8196 0.639736 97.639 0.354704 100.471 0.149251C103.328 0.0530859 106.231 -0.0307292 109.084 0.0109842C111.878 0.132644 114.706 0.250059 117.484 0.522347C128.615 1.62001 139.34 4.3597 149.323 8.36039C169.298 16.4163 186.482 29.2438 200.028 45.9509C204.284 50.8105 201.167 58.7575 193.429 66.3696C185.759 74.0609 173.715 81.5056 161.202 88.0696C148.689 94.6336 135.764 100.537 126.339 105.141C116.884 109.648 110.939 113.058 110.96 112.22C110.164 109.678 108.098 106.888 106.146 105.132C105.17 104.232 104.261 103.549 103.49 103.013C103.297 102.883 103.121 102.816 102.928 102.636C102.782 102.548 102.677 102.477 102.539 102.309C102.371 102.25 102.195 102.166 102.002 102.024C101.789 102.003 101.567 101.903 101.32 101.807C99.3046 101.253 96.1672 101.857 94.2819 102.619L92.0365 103.482C91.5549 103.524 91.0648 103.533 90.5287 104.374C89.4188 105.903 89.2762 109.146 89.4604 110.813C89.5736 111.71 89.4187 112.116 89.5025 112.661C90.022 113.486 91.6011 114.768 94.2949 116.125L96.7288 117.101L97.9732 117.616L99.7996 118.144C101.115 118.509 102.016 118.827 103.675 119.233L111.211 120.729C121.211 122.698 131.181 124.549 140.13 127.461C158.42 132.97 172.198 141.734 183.502 153.501C185.589 156.065 187.805 158.478 189.552 161.369L192.329 165.525L194.692 169.97C197.687 176.011 199.711 182.569 200.888 189.246Z" fill="#70A1D7"/>
</svg>
