<svg width="45" height="64" viewBox="0 0 45 64" fill="none" xmlns="http://www.w3.org/2000/svg">
<path d="M44.7522 42.9776C45.2683 45.9595 44.9657 49.0571 43.9616 51.8742C42.9677 54.7038 41.2291 57.2048 38.979 59.1263C36.7346 61.0582 34.0224 62.4637 31.0304 63.2588C28.0365 64.0511 24.7747 64.2442 21.4387 63.6628C18.1071 63.1075 14.739 61.7374 11.7827 59.8868C8.85882 58.0118 6.18866 55.7935 4.44732 53.3819C3.57284 52.1753 2.89531 50.9041 2.49964 49.5266C2.09089 48.1528 2.03023 46.6745 2.35777 45.2074C2.55746 44.2768 3.04281 43.4015 3.63913 42.8266C4.24104 42.2377 4.92789 41.9073 5.55976 41.8299C6.84667 41.6713 7.66884 42.4403 8.1308 43.2915C8.61045 44.1622 8.9054 45.1626 9.41965 45.7748C9.91617 46.4318 10.5181 46.5121 10.6133 46.6866C10.5722 47.3744 10.7719 48.1424 11.177 48.7463C11.568 49.3659 12.1009 49.8773 12.6609 50.315C13.7976 51.1755 14.9718 51.8735 16.142 52.4083C18.4611 53.4937 20.8764 53.8791 22.8979 53.2641C24.8951 52.693 26.4938 51.1774 26.7132 49.2802C26.8355 48.3544 26.6572 47.4044 26.2213 46.5981C25.7967 45.7796 25.023 45.1656 24.1766 44.8362C23.1277 44.4311 22.0246 44.4218 21.0754 44.461L19.7297 44.5423L19.4226 44.5609L18.3205 44.4023L17.7446 44.3164L17.0531 44.1708C16.5883 44.0682 16.1357 43.9767 15.6606 43.8564C13.7195 43.3282 11.5962 42.5471 9.48729 41.2331C7.28579 39.8623 5.36036 37.9826 3.92694 35.9415C1.05524 31.8157 -0.245586 27.0335 0.0381032 22.0548C0.183675 19.5827 0.807104 16.9676 1.899 14.586C2.96662 12.2332 4.43282 10.1315 6.13407 8.35073C9.55641 4.79405 13.8454 2.42079 18.6631 1.35894C19.2697 1.23479 19.8838 1.13214 20.4988 1.03415C21.1232 0.961363 21.7513 0.897866 22.3822 0.852097C23.0186 0.830674 23.6654 0.812002 24.3009 0.821295C24.9234 0.848397 25.5534 0.874554 26.1721 0.935212C28.6518 1.17974 31.0411 1.79007 33.265 2.68131C37.7149 4.47595 41.5431 7.33355 44.5606 11.0554C45.5089 12.138 44.8145 13.9084 43.0907 15.6041C41.382 17.3176 38.6988 18.976 35.9113 20.4383C33.1237 21.9006 30.2445 23.2157 28.1448 24.2412C26.0385 25.2454 24.7141 26.0051 24.7188 25.8185C24.5414 25.252 24.0813 24.6305 23.6464 24.2394C23.429 24.0388 23.2264 23.8866 23.0547 23.7672C23.0118 23.7383 22.9725 23.7233 22.9296 23.6832C22.8969 23.6636 22.8736 23.6478 22.8428 23.6105C22.8055 23.5974 22.7662 23.5787 22.7233 23.547C22.6757 23.5423 22.6262 23.5199 22.5712 23.4985C22.1223 23.3753 21.4234 23.5097 21.0034 23.6795L20.5032 23.8718C20.3959 23.8811 20.2867 23.883 20.1673 24.0706C19.92 24.4112 19.8883 25.1335 19.9293 25.505C19.9545 25.7047 19.92 25.7952 19.9387 25.9165C20.0544 26.1004 20.4062 26.3859 21.0063 26.6883L21.5485 26.9057L21.8257 27.0204L22.2326 27.1381C22.5256 27.2193 22.7263 27.2902 23.0958 27.3807L24.7748 27.7138C27.0025 28.1525 29.2235 28.5649 31.217 29.2136C35.2915 30.4409 38.361 32.3932 40.8792 35.0147C41.344 35.5858 41.8377 36.1234 42.2268 36.7674L42.8456 37.6932L43.372 38.6834C44.0393 40.0291 44.49 41.4902 44.7522 42.9776Z" fill="#F7FDB6"/>
</svg>
