<svg width="432" height="606" viewBox="0 0 432 606" fill="none" xmlns="http://www.w3.org/2000/svg">
<path d="M429.239 404.364C434.189 432.964 431.287 462.676 421.656 489.695C412.123 516.836 395.448 540.824 373.865 559.254C352.338 577.784 326.324 591.264 297.627 598.89C268.911 606.49 237.626 608.342 205.629 602.765C173.674 597.439 141.368 584.298 113.013 566.547C84.969 548.564 59.3583 527.287 42.6563 504.157C34.2687 492.583 27.7702 480.39 23.9752 467.178C20.0547 454.002 19.4729 439.823 22.6145 425.751C24.5298 416.826 29.185 408.429 34.9046 402.916C40.6778 397.267 47.2656 394.098 53.3262 393.356C65.6695 391.834 73.5553 399.21 77.9863 407.374C82.5868 415.726 85.4158 425.321 90.3482 431.194C95.1106 437.495 100.884 438.265 101.797 439.939C101.403 446.535 103.318 453.902 107.204 459.694C110.954 465.637 116.065 470.542 121.436 474.74C132.339 482.993 143.602 489.689 154.826 494.818C177.069 505.228 200.235 508.925 219.625 503.027C238.781 497.549 254.114 483.012 256.219 464.815C257.391 455.935 255.681 446.823 251.501 439.09C247.428 431.24 240.008 425.35 231.889 422.19C221.828 418.305 211.248 418.216 202.144 418.592L189.236 419.371L186.291 419.55L175.72 418.029L170.197 417.205L163.564 415.809C159.106 414.824 154.765 413.947 150.208 412.793C131.59 407.727 111.225 400.235 90.997 387.632C69.8814 374.483 51.4137 356.455 37.6651 336.877C10.1213 297.305 -2.35553 251.437 0.365465 203.684C1.76171 179.972 7.74131 154.89 18.2142 132.047C28.4542 109.48 42.5172 89.3219 58.8347 72.2418C91.6599 38.1279 132.798 15.365 179.006 5.18027C184.825 3.98946 190.714 3.00496 196.613 2.06507C202.602 1.36693 208.626 0.757899 214.678 0.318907C220.782 0.113429 226.985 -0.0656595 233.081 0.02347C239.052 0.283422 245.094 0.534303 251.029 1.11611C274.812 3.46148 297.73 9.31542 319.06 17.8637C361.741 35.077 398.459 62.4855 427.401 98.1838C436.496 108.567 429.837 125.548 413.303 141.813C396.914 158.247 371.178 174.154 344.442 188.179C317.705 202.205 290.089 214.819 269.95 224.655C249.747 234.287 237.045 241.573 237.089 239.783C235.388 234.349 230.975 228.388 226.803 224.637C224.718 222.713 222.775 221.254 221.128 220.108C220.717 219.831 220.34 219.688 219.928 219.303C219.615 219.115 219.391 218.963 219.096 218.605C218.738 218.479 218.361 218.3 217.95 217.996C217.493 217.951 217.019 217.737 216.491 217.531C212.185 216.349 205.482 217.638 201.453 219.267L196.655 221.112C195.626 221.201 194.579 221.219 193.434 223.018C191.062 226.285 190.758 233.213 191.151 236.776C191.393 238.691 191.062 239.56 191.241 240.723C192.351 242.487 195.725 245.225 201.481 248.125L206.682 250.211L209.341 251.312L213.243 252.44C216.054 253.219 217.978 253.899 221.523 254.767L237.626 257.962C258.993 262.169 280.296 266.125 299.417 272.347C338.498 284.118 367.938 302.844 392.091 327.988C396.549 333.466 401.284 338.622 405.017 344.799L410.952 353.679L416.001 363.176C422.401 376.084 426.724 390.098 429.239 404.364Z" fill="#A4D792"/>
</svg>
